<?xml version="1.0" encoding="UTF-8"?>
<!-- Generated by jsxcad -->
<!DOCTYPE svg PUBLIC "-//W3C//DTD SVG 1.1 Tiny//EN" "http://www.w3.org/Graphics/SVG/1.1/DTD/svg11-tiny.dtd">
<svg viewBox="-250 -250 500 500" width="500" height="500" xmlns="http://www.w3.org/2000/svg"><path d="M104.80139424179515,-31.905710125179134L106.61658137382007,-24.90959791403374L105.71859446150333,-28.410904509376095zM106.61658137382007,-24.90959791403374L104.80139424179515,-31.905710125179134L107.4942810568601,-21.40598076343762zM107.4942810568601,-21.40598076343762L104.80139424179515,-31.905710125179134L103.86607443096852,-35.389822108561255zM107.4942810568601,-21.40598076343762L103.86607443096852,-35.389822108561255L108.35063205859859,-17.90424770258954zM108.35063205859859,-17.90424770258954L103.86607443096852,-35.389822108561255L102.91374616558146,-38.85906064394367zM108.35063205859859,-17.90424770258954L102.91374616558146,-38.85906064394367L109.18459349870615,-14.408601008260582zM109.18459349870615,-14.408601008260582L102.91374616558146,-38.85906064394367L101.94553163415841,-42.30924411367102zM109.18459349870615,-14.408601008260582L101.94553163415841,-42.30924411367102L109.99512839030488,-10.923247673994782zM109.99512839030488,-10.923247673994782L101.94553163415841,-42.30924411367102L100.96257017459885,-45.73619081926494zM109.99512839030488,-10.923247673994782L100.96257017459885,-45.73619081926494L110.78122151394282,-7.452398296473311zM110.78122151394282,-7.452398296473311L100.96257017459885,-45.73619081926494L99.96601414769744,-49.13572350508643zM110.78122151394282,-7.452398296473311L99.96601414769744,-49.13572350508643L111.54188584571497,-4.000269110146902zM111.54188584571497,-4.000269110146902L99.96601414769744,-49.13572350508643L98.95704262661347,-52.50367616064181zM111.54188584571497,-4.000269110146902L98.95704262661347,-52.50367616064181L112.27612323861992,-0.571084850981372zM112.27612323861992,-0.571084850981372L98.95704262661347,-52.50367616064181L97.93683881402339,-55.835869333582394zM112.27612323861992,-0.571084850981372L97.93683881402339,-55.835869333582394L112.98297777289159,2.8309258859734903zM112.98297777289159,2.8309258859734903L97.93683881402339,-55.835869333582394L96.90661761865233,-59.128134751013015zM112.98297777289159,2.8309258859734903L96.90661761865233,-59.128134751013015L113.66149148909622,6.201527620822892zM113.66149148909622,6.201527620822892L96.90661761865233,-59.128134751013015L95.86759129271096,-62.37630921818482zM113.66149148909622,6.201527620822892L95.86759129271096,-62.37630921818482L114.3107319803182,9.536479827105232zM114.3107319803182,9.536479827105232L95.86759129271096,-62.37630921818482L94.82101114013302,-65.57623284040066zM114.3107319803182,9.536479827105232L94.82101114013302,-65.57623284040066L114.92978596123706,12.831536309868515zM114.92978596123706,12.831536309868515L94.82101114013302,-65.57623284040066L93.76813757277017,-68.72374518052673zM114.92978596123706,12.831536309868515L93.76813757277017,-68.72374518052673L115.51774772816769,16.08244634616458zM115.51774772816769,16.08244634616458L93.76813757277017,-68.72374518052673L92.7102414060479,-71.81469910494859zM115.51774772816769,16.08244634616458L92.7102414060479,-71.81469910494859L116.0737457502685,19.28495657972411zM116.0737457502685,19.28495657972411L92.7102414060479,-71.81469910494859L91.6486177468809,-74.84494521311201zM116.0737457502685,19.28495657972411L91.6486177468809,-74.84494521311201L116.5969203715653,22.434810285843422zM116.5969203715653,22.434810285843422L91.6486177468809,-74.84494521311201L90.58459107296528,-77.8103411220888zM116.5969203715653,22.434810285843422L90.58459107296528,-77.8103411220888L117.086419376148,25.527751660065423zM117.086419376148,25.527751660065423L90.58459107296528,-77.8103411220888L89.5194824254564,-80.70677326698491zM117.086419376148,25.527751660065423L89.5194824254564,-80.70677326698491L117.54143811237621,28.55952375732872zM117.54143811237621,28.55952375732872L89.5194824254564,-80.70677326698491L88.45465500318494,-83.530131517991zM117.54143811237621,28.55952375732872L88.45465500318494,-83.530131517991L117.96117865323068,31.52587698682338zM117.96117865323068,31.52587698682338L88.45465500318494,-83.530131517991L87.39146101442377,-86.27630467427826zM117.96117865323068,31.52587698682338L87.39146101442377,-86.27630467427826L118.34486423885261,34.422564017306556zM118.34486423885261,34.422564017306556L87.39146101442377,-86.27630467427826L86.33130128474757,-88.94123351604519zM118.34486423885261,34.422564017306556L86.33130128474757,-88.94123351604519L118.69174823642933,37.24534612268932zM118.69174823642933,37.24534612268932L86.33130128474757,-88.94123351604519L85.27557823551516,-91.5208508001002zM118.69174823642933,37.24534612268932L85.27557823551516,-91.5208508001002L119.00112890866274,39.990003340622195zM119.00112890866274,39.990003340622195L85.27557823551516,-91.5208508001002L84.22570661168689,-94.01113632706533zM119.00112890866274,39.990003340622195L84.22570661168689,-94.01113632706533L119.2722935833548,42.652320446315706zM119.2722935833548,42.652320446315706L84.22570661168689,-94.01113632706533L83.1831292825707,-96.40809308499706zM119.2722935833548,42.652320446315706L83.1831292825707,-96.40809308499706L119.50459317420493,45.228120619748125zM119.50459317420493,45.228120619748125L83.1831292825707,-96.40809308499706L82.14930722886291,-98.70776222223863zM119.50459317420493,45.228120619748125L82.14930722886291,-98.70776222223863L119.69739893205261,47.713230792295455zM119.69739893205261,47.713230792295455L82.14930722886291,-98.70776222223863L81.12570604243939,-100.90622106157113zM119.69739893205261,47.713230792295455L81.12570604243939,-100.90622106157113L119.85012171798424,50.103527922978536zM119.85012171798424,50.103527922978536L81.12570604243939,-100.90622106157113L80.11380699005778,-102.99961447018227zM119.85012171798424,50.103527922978536L80.11380699005778,-102.99961447018227L119.96219791153868,52.39491662428322zM119.96219791153868,52.39491662428322L80.11380699005778,-102.99961447018227L79.11510802938167,-104.98411214797113zM119.96219791153868,52.39491662428322L79.11510802938167,-104.98411214797113L120.03312261549422,54.58334474670853zM120.03312261549422,54.58334474670853L79.11510802938167,-104.98411214797113L78.13112636694609,-106.85596898497701zM120.03312261549422,54.58334474670853L78.13112636694609,-106.85596898497701L120.06240102960133,56.66481507843947zM120.06240102960133,56.66481507843947L78.13112636694609,-106.85596898497701L77.16338567467434,-108.61149946439616zM120.06240102960133,56.66481507843947L77.16338567467434,-108.61149946439616L120.04961706689957,58.63537706632665zM120.04961706689957,58.63537706632665L77.16338567467434,-108.61149946439616L76.21340313596947,-110.24709625980131zM120.04961706689957,58.63537706632665L76.21340313596947,-110.24709625980131L119.99437894877154,60.491158755477834zM119.99437894877154,60.491158755477834L76.21340313596947,-110.24709625980131L75.28272717696882,-111.7592355237286z" style="fill:rgb(247,158,158)"/><path d="M-184.3437489155391,-48.45168509281467L66.75976929603023,-119.35377638368978L-182.93184095063543,-48.88310302942422z" style="fill:rgb(92,249,140)"/><path d="M119.99437894877154,60.491158755477834L75.28272717696882,-111.7592355237286L119.89634501342692,62.22835670457442z" style="fill:rgb(247,158,158)"/><path d="M115.95428343514799,72.52798034580431L-138.45129298939491,131.67326474176673L-136.99398676152046,131.41357129032548z" style="fill:rgb(155,3,141)"/><path d="M119.89634501342692,62.22835670457442L75.28272717696882,-111.7592355237286L74.3729021011524,-113.14448962122805z" style="fill:rgb(247,158,158)"/><path d="M-185.72069743417742,-47.87287603006889L66.18008978871039,-119.15511077841046L-184.3437489155391,-48.45168509281467z" style="fill:rgb(91,248,145)"/><path d="M119.89634501342692,62.22835670457442L74.3729021011524,-113.14448962122805L119.7552265648859,63.84325123512137z" style="fill:rgb(247,158,158)"/><path d="M115.33801395961464,72.58671810083891L-139.94849980823045,131.78641675984863L-138.45129298939491,131.67326474176673z" style="fill:rgb(154,4,146)"/><path d="M119.7552265648859,63.84325123512137L74.3729021011524,-113.14448962122805L73.48546899343367,-114.39954887068934z" style="fill:rgb(247,158,158)"/><path d="M-187.06001179248557,-47.14610158619773L65.63920853800298,-118.79987302075351L-185.72069743417742,-47.87287603006889z" style="fill:rgb(90,247,150)"/><path d="M119.7552265648859,63.84325123512137L73.48546899343367,-114.39954887068934L119.57080034529325,65.3322163988348z" style="fill:rgb(247,158,158)"/><path d="M114.68029974843498,72.48907480880584L-141.4835357762359,131.75132039195333L-139.94849980823045,131.78641675984863z" style="fill:rgb(152,4,151)"/><path d="M119.57080034529325,65.3322163988348L73.48546899343367,-114.39954887068934L72.62198098366919,-115.52119264495745z" style="fill:rgb(247,158,158)"/><path d="M-188.3590342645348,-46.27104384389027L65.1384423446581,-118.2869177684669L-187.06001179248557,-47.14610158619773z" style="fill:rgb(89,246,154)"/><path d="M119.57080034529325,65.3322163988348L72.62198098366919,-115.52119264495745L119.34288302246415,66.69173378437739zM119.34288302246415,66.69173378437739L72.62198098366919,-115.52119264495745L71.78398145200029,-116.50634892916543z" style="fill:rgb(247,158,158)"/><path d="M-141.4835357762359,131.75132039195333L113.24321903799697,71.81863053751789L-143.05419406040883,131.56648781421592z" style="fill:rgb(151,5,156)"/><path d="M-189.6151439969819,-45.247661601774716L64.67909867540179,-117.61536050800794L-188.3590342645348,-46.27104384389027z" style="fill:rgb(89,244,159)"/><path d="M119.34288302246415,66.69173378437739L71.78398145200029,-116.50634892916543L119.07137239683856,67.91837796476213zM119.07137239683856,67.91837796476213L71.78398145200029,-116.50634892916543L70.97301154019765,-117.35207467238713z" style="fill:rgb(247,158,158)"/><path d="M-143.05419406040883,131.56648781421592L112.46539765337681,71.24347197531189L-144.65814558089187,131.2306792902802z" style="fill:rgb(149,6,161)"/><path d="M-190.82573201433527,-44.07619227853238L64.26241032326324,-116.78460647775796L-189.6151439969819,-45.247661601774716z" style="fill:rgb(88,243,164)"/><path d="M119.07137239683856,67.91837796476213L70.97301154019765,-117.35207467238713L118.75620039035259,69.00889137079876zM118.75620039035259,69.00889137079876L70.97301154019765,-117.35207467238713L70.19060236335172,-118.05556556361846z" style="fill:rgb(247,158,158)"/><path d="M-144.65814558089187,131.2306792902802L111.64926266879148,70.50725590573109L-146.2929663097613,130.74294617495465z" style="fill:rgb(148,7,165)"/><path d="M118.75620039035259,69.00889137079876L70.19060236335172,-118.05556556361846L118.39739722900075,69.96010506834465z" style="fill:rgb(247,158,158)"/><path d="M66.75976929603023,-119.35377638368978L-184.3437489155391,-48.45168509281467L66.18008978871039,-119.15511077841046z" style="fill:rgb(92,249,140)"/><path d="M63.56170875444753,-114.64455432703987L-190.82573201433527,-44.07619227853238L-191.98822376644182,-42.7571617889684z" style="fill:rgb(87,241,169)"/><path d="M-138.45129298939491,131.67326474176673L115.95428343514799,72.52798034580431L115.33801395961464,72.58671810083891z" style="fill:rgb(155,3,141)"/><path d="M-146.2929663097613,130.74294617495465L110.79582753940926,69.60951078373624L-147.9561363958688,130.10257244007062z" style="fill:rgb(146,9,170)"/><path d="M118.39739722900075,69.96010506834465L70.19060236335172,-118.05556556361846L69.43828949455221,-118.61420434234344zM118.39739722900075,69.96010506834465L69.43828949455221,-118.61420434234344L117.99502892952775,70.76903736938971z" style="fill:rgb(247,158,158)"/><path d="M63.27988611975639,-113.33556977962337L-191.98822376644182,-42.7571617889684L-193.1001126547018,-41.29138948929078z" style="fill:rgb(86,239,173)"/><path d="M66.18008978871039,-119.15511077841046L-185.72069743417742,-47.87287603006889L65.63920853800298,-118.79987302075351z" style="fill:rgb(91,248,145)"/><path d="M-147.9561363958688,130.10257244007062L109.90619178268304,68.55010560769861L-149.64499581150082,129.3091613772958z" style="fill:rgb(145,10,175)"/><path d="M-139.94849980823045,131.78641675984863L115.33801395961464,72.58671810083891L114.68029974843498,72.48907480880584z" style="fill:rgb(154,4,146)"/><path d="M117.99502892952775,70.76903736938971L69.43828949455221,-118.61420434234344L68.71756753944621,-119.02551319306465zM117.99502892952775,70.76903736938971L68.71756753944621,-119.02551319306465L117.54926994534182,71.43285326772187z" style="fill:rgb(247,158,158)"/><path d="M63.04509198779162,-111.86802281506822L-193.1001126547018,-41.29138948929078L-194.15890996274788,-39.680004583536494z" style="fill:rgb(86,236,178)"/><path d="M65.63920853800298,-118.79987302075351L-187.06001179248557,-47.14610158619773L65.1384423446581,-118.2869177684669z" style="fill:rgb(90,247,150)"/><path d="M-149.64499581150082,129.3091613772958L108.98156720350092,67.32921794466431L-151.3568177037928,128.36260650493043z" style="fill:rgb(143,12,179)"/><path d="M-141.4835357762359,131.75132039195333L114.68029974843498,72.48907480880584L113.98179445604552,72.23348878794627z" style="fill:rgb(152,4,151)"/><path d="M117.54926994534182,71.43285326772187L68.71756753944621,-119.02551319306465L68.02992564443659,-119.28723239839405zM117.54926994534182,71.43285326772187L68.02992564443659,-119.28723239839405L117.06034037469811,71.94889046489193z" style="fill:rgb(247,158,158)"/><path d="M62.858244915478146,-110.24288114809379L-194.15890996274788,-39.680004583536494L-195.16220952183852,-37.92446171433763z" style="fill:rgb(85,234,182)"/><path d="M65.1384423446581,-118.2869177684669L-188.3590342645348,-46.27104384389027L64.67909867540179,-117.61536050800794z" style="fill:rgb(89,246,154)"/><path d="M113.24321903799697,71.81863053751789L-141.4835357762359,131.75132039195333L113.98179445604552,72.23348878794627z" style="fill:rgb(151,5,156)"/><path d="M-151.3568177037928,128.36260650493043L108.02325800884583,65.94736424654029L-153.0887651054561,127.26309043305767z" style="fill:rgb(142,14,184)"/><path d="M117.06034037469811,71.94889046489193L68.02992564443659,-119.28723239839405L67.3768470391062,-119.39727483207285z" style="fill:rgb(247,158,158)"/><path d="M62.72017905424882,-108.46146578554645L-195.16220952183852,-37.92446171433763L-196.10766620958483,-36.02652685122418z" style="fill:rgb(85,231,187)"/><path d="M117.06034037469811,71.94889046489193L67.3768470391062,-119.39727483207285L116.5285491404112,72.31469485710997z" style="fill:rgb(247,158,158)"/><path d="M64.67909867540179,-117.61536050800794L-189.6151439969819,-45.247661601774716L64.26241032326324,-116.78460647775796z" style="fill:rgb(89,244,159)"/><path d="M112.46539765337681,71.24347197531189L-143.05419406040883,131.56648781421592L113.24321903799697,71.81863053751789z" style="fill:rgb(149,6,161)"/><path d="M-153.0887651054561,127.26309043305767L107.03265840790417,64.4054000496043L-154.8378621856506,126.01112766574732z" style="fill:rgb(140,16,188)"/><path d="M116.5285491404112,72.31469485710997L67.3768470391062,-119.39727483207285L66.75976929603023,-119.35377638368978z" style="fill:rgb(247,158,158)"/><path d="M62.631645809873405,-106.52546935250275L-196.10766620958483,-36.02652685122418L-196.99300334657565,-33.98829169361111z" style="fill:rgb(84,229,191)"/><path d="M116.5285491404112,72.31469485710997L66.75976929603023,-119.35377638368978L115.95428343514799,72.52798034580431z" style="fill:rgb(247,158,158)"/><path d="M-154.8378621856506,126.01112766574732L106.01127612935674,62.70455176588419L-156.60111403786107,124.60756318752877z" style="fill:rgb(138,18,192)"/><path d="M64.26241032326324,-116.78460647775796L-190.82573201433527,-44.07619227853238L63.88957098021071,-115.7943366289268z" style="fill:rgb(88,243,164)"/><path d="M111.64926266879148,70.50725590573109L-144.65814558089187,131.2306792902802L112.46539765337681,71.24347197531189z" style="fill:rgb(148,7,165)"/><path d="M115.95428343514799,72.52798034580431L66.75976929603023,-119.35377638368978L66.18008978871039,-119.15511077841046z" style="fill:rgb(247,158,158)"/><path d="M62.593298890758476,-104.43693176620462L-196.99300334657565,-33.98829169361111L-197.8160355783334,-31.812198722355944z" style="fill:rgb(84,226,195)"/><path d="M-190.82573201433527,-44.07619227853238L63.56170875444753,-114.64455432703987L63.88957098021071,-115.7943366289268z" style="fill:rgb(87,241,169)"/><path d="M-156.60111403786107,124.60756318752877L104.96068907778164,60.84639940462194L-158.37540588992854,123.05357770806792z" style="fill:rgb(137,21,196)"/><path d="M115.95428343514799,72.52798034580431L66.18008978871039,-119.15511077841046L115.33801395961464,72.58671810083891z" style="fill:rgb(247,158,158)"/><path d="M110.79582753940926,69.60951078373624L-146.2929663097613,130.74294617495465L111.64926266879148,70.50725590573109z" style="fill:rgb(146,9,170)"/><path d="M62.60570090890065,-102.19825847642845L-197.8160355783334,-31.812198722355944L-198.5746770115742,-29.50100604397341z" style="fill:rgb(84,223,199)"/><path d="M115.33801395961464,72.58671810083891L66.18008978871039,-119.15511077841046L65.63920853800298,-118.79987302075351z" style="fill:rgb(247,158,158)"/><path d="M-158.37540588992854,123.05357770806792L103.8825851824083,58.83290387408022L-160.15754962672398,121.3506916964266z" style="fill:rgb(135,23,201)"/><path d="M-191.98822376644182,-42.7571617889684L63.27988611975639,-113.33556977962337L63.56170875444753,-114.64455432703987z" style="fill:rgb(86,239,173)"/><path d="M109.90619178268304,68.55010560769861L-147.9561363958688,130.10257244007062L110.79582753940926,69.60951078373624z" style="fill:rgb(145,10,175)"/><path d="M115.33801395961464,72.58671810083891L65.63920853800298,-118.79987302075351L114.68029974843498,72.48907480880584z" style="fill:rgb(247,158,158)"/><path d="M62.66930917489889,-99.81224278456313L-198.5746770115742,-29.50100604397341L-199.266934780491,-27.057829168197067z" style="fill:rgb(84,219,203)"/><path d="M-160.15754962672398,121.3506916964266L102.7787450540781,56.666401430602804L-161.94425804920994,119.50076956475544z" style="fill:rgb(133,26,204)"/><path d="M114.68029974843498,72.48907480880584L65.63920853800298,-118.79987302075351L65.1384423446581,-118.2869177684669z" style="fill:rgb(247,158,158)"/><path d="M-193.1001126547018,-41.29138948929078L63.04509198779162,-111.86802281506822L63.27988611975639,-113.33556977962337z" style="fill:rgb(86,236,178)"/><path d="M108.98156720350092,67.32921794466431L-149.64499581150082,129.3091613772958L109.90619178268304,68.55010560769861z" style="fill:rgb(143,12,179)"/><path d="M114.68029974843498,72.48907480880584L65.1384423446581,-118.2869177684669L113.98179445604552,72.23348878794627z" style="fill:rgb(247,158,158)"/><path d="M62.78447759340003,-97.28205691362608L-199.266934780491,-27.057829168197067L-199.89093219928253,-24.48611300841513z" style="fill:rgb(83,216,207)"/><path d="M-161.94425804920994,119.50076956475544L101.65102788692275,54.349610036677525L-163.73223796388532,117.5060444105471z" style="fill:rgb(131,29,208)"/><path d="M-194.15890996274788,-39.680004583536494L62.858244915478146,-110.24288114809379L63.04509198779162,-111.86802281506822z" style="fill:rgb(85,234,182)"/><path d="M113.98179445604552,72.23348878794627L65.1384423446581,-118.2869177684669L64.67909867540179,-117.61536050800794z" style="fill:rgb(247,158,158)"/><path d="M62.95144515855031,-94.61124574319146L-199.89093219928253,-24.48611300841513L-200.44491665563893,-21.789651086032112z" style="fill:rgb(83,213,211)"/><path d="M108.02325800884583,65.94736424654029L-151.3568177037928,128.36260650493043L108.98156720350092,67.32921794466431z" style="fill:rgb(142,14,184)"/><path d="M113.98179445604552,72.23348878794627L64.67909867540179,-117.61536050800794L113.24321903799697,71.81863053751789z" style="fill:rgb(247,158,158)"/><path d="M-163.73223796388532,117.5060444105471L100.50138721872545,51.885638721623074L-165.51807533818229,115.36909003027614z" style="fill:rgb(130,32,212)"/><path d="M-200.92726895518504,-18.972570102122287L62.95144515855031,-94.61124574319146L-200.44491665563893,-21.789651086032112z" style="fill:rgb(83,209,214)"/><path d="M-195.16220952183852,-37.92446171433763L62.72017905424882,-108.46146578554645L62.858244915478146,-110.24288114809379z" style="fill:rgb(85,231,187)"/><path d="M113.24321903799697,71.81863053751789L64.67909867540179,-117.61536050800794L64.26241032326324,-116.78460647775796z" style="fill:rgb(247,158,158)"/><path d="M-165.51807533818229,115.36909003027614L99.33185839318828,49.27798904795345L-167.2983601077891,113.09284383971432z" style="fill:rgb(128,35,215)"/><path d="M107.03265840790417,64.4054000496043L-153.0887651054561,127.26309043305767L108.02325800884583,65.94736424654029z" style="fill:rgb(140,16,188)"/><path d="M-201.33649679975977,-16.039335549308564L63.1703456323672,-91.80373652121362L-200.92726895518504,-18.972570102122287z" style="fill:rgb(83,205,218)"/><path d="M113.24321903799697,71.81863053751789L64.26241032326324,-116.78460647775796L112.46539765337681,71.24347197531189z" style="fill:rgb(247,158,158)"/><path d="M-196.10766620958483,-36.02652685122418L62.631645809873405,-106.52546935250275L62.72017905424882,-108.46146578554645z" style="fill:rgb(84,229,191)"/><path d="M-167.2983601077891,113.09284383971432L98.1445517959264,46.530546637103896L-169.06961670120725,110.68061383961977z" style="fill:rgb(126,39,219)"/><path d="M112.46539765337681,71.24347197531189L64.26241032326324,-116.78460647775796L63.88957098021071,-115.7943366289268z" style="fill:rgb(247,158,158)"/><path d="M106.01127612935674,62.70455176588419L-154.8378621856506,126.01112766574732L107.03265840790417,64.4054000496043z" style="fill:rgb(138,18,192)"/><path d="M-201.67127102451428,-12.994742672434699L63.44118096409562,-88.86383262625628L-201.33649679975977,-16.039335549308564z" style="fill:rgb(84,201,221)"/><path d="M112.46539765337681,71.24347197531189L63.88957098021071,-115.7943366289268L111.64926266879148,70.50725590573109z" style="fill:rgb(247,158,158)"/><path d="M-169.06961670120725,110.68061383961977L96.94165129067869,43.647581980796964L-170.82835601350408,108.13606216326087z" style="fill:rgb(124,42,222)"/><path d="M-196.99300334657565,-33.98829169361111L62.593298890758476,-104.43693176620462L62.631645809873405,-106.52546935250275z" style="fill:rgb(84,226,195)"/><path d="M-201.93036051938938,-9.843913037703231L63.763849585751636,-85.7962233505498L-201.67127102451428,-12.994742672434699z" style="fill:rgb(84,197,224)"/><path d="M104.96068907778164,60.84639940462194L-156.60111403786107,124.60756318752877L106.01127612935674,62.70455176588419z" style="fill:rgb(137,21,196)"/><path d="M111.64926266879148,70.50725590573109L63.88957098021071,-115.7943366289268L63.56170875444753,-114.64455432703987z" style="fill:rgb(247,158,158)"/><path d="M77.83564520446238,-62.70275971565327L157.36622032007006,-84.06754827767311L78.45645520641338,-62.93913136594519z" style="fill:rgb(94,250,134)"/><path d="M-170.82835601350408,108.13606216326087L95.7254145086692,40.63375487807719L-172.5710348520107,105.46320826248875z" style="fill:rgb(123,46,225)"/><path d="M-202.11278987029468,-6.592281688810328L64.13810920758084,-82.60596795991067L-201.93036051938938,-9.843913037703231z" style="fill:rgb(84,193,227)"/><path d="M111.64926266879148,70.50725590573109L63.56170875444753,-114.64455432703987L110.79582753940926,69.60951078373624z" style="fill:rgb(247,158,158)"/><path d="M-197.8160355783334,-31.812198722355944L62.60570090890065,-102.19825847642845L62.593298890758476,-104.43693176620462z" style="fill:rgb(84,223,199)"/><path d="M160.0523136187648,-76.7900016904919L162.17567984255928,-68.6902331318248L161.16583024754428,-72.77375248764169zM162.17567984255928,-68.6902331318248L160.0523136187648,-76.7900016904919L162.96373096234345,-65.01636955635564z" style="fill:rgb(247,158,158)"/><path d="M-172.5710348520107,105.46320826248875L94.49816224619413,37.494099890762634L-174.2941556812222,102.66641016159076z" style="fill:rgb(121,50,228)"/><path d="M103.8825851824083,58.83290387408022L-158.37540588992854,123.05357770806792L104.96068907778164,60.84639940462194z" style="fill:rgb(135,23,201)"/><path d="M110.79582753940926,69.60951078373624L63.56170875444753,-114.64455432703987L63.27988611975639,-113.33556977962337z" style="fill:rgb(247,158,158)"/><path d="M-202.21764930147563,-3.2455900975016547L64.56360043857816,-79.29848663220046L-202.11278987029468,-6.592281688810328z" style="fill:rgb(85,189,230)"/><path d="M162.96373096234345,-65.01636955635564L160.0523136187648,-76.7900016904919L158.9650921072609,-80.2690321287888z" style="fill:rgb(247,158,158)"/><path d="M84.01187141741518,-39.55282160777596L162.5931106209122,-61.48151312597593L83.0741998220671,-40.64313281648002z" style="fill:rgb(149,7,163)"/><path d="M110.79582753940926,69.60951078373624L63.27988611975639,-113.33556977962337L109.90619178268304,68.55010560769861z" style="fill:rgb(247,158,158)"/><path d="M-174.2941556812222,102.66641016159076L93.26226590115779,34.234023845445925L-175.99416738951442,99.75040369739051z" style="fill:rgb(119,53,231)"/><path d="M-198.5746770115742,-29.50100604397341L62.66930917489889,-99.81224278456313L62.60570090890065,-102.19825847642845z" style="fill:rgb(84,219,203)"/><path d="M162.96373096234345,-65.01636955635564L158.9650921072609,-80.2690321287888L163.43632341700533,-62.185692769190894z" style="fill:rgb(247,158,158)"/><path d="M157.12554484739357,-82.33176890119663L77.83564520446238,-62.70275971565327L77.62214629280412,-61.07601804946653z" style="fill:rgb(86,237,176)"/><path d="M-202.24428462884697,0.1901262403560936L65.03983386120936,-75.87955107541936L-202.21764930147563,-3.2455900975016547z" style="fill:rgb(85,185,233)"/><path d="M102.7787450540781,56.666401430602804L-160.15754962672398,121.3506916964266L103.8825851824083,58.83290387408022z" style="fill:rgb(133,26,204)"/><path d="M163.43632341700533,-62.185692769190894L158.9650921072609,-80.2690321287888L158.03231142880063,-82.797958876245zM109.90619178268304,68.55010560769861L63.27988611975639,-113.33556977962337L63.04509198779162,-111.86802281506822z" style="fill:rgb(247,158,158)"/><path d="M-175.99416738951442,99.75040369739051L92.02016413628603,30.859295630827642L-177.66757915787977,96.72022616046227z" style="fill:rgb(117,58,233)"/><path d="M-202.19218240100872,3.708550468064542L65.5661933681761,-72.35527374902635L-202.24428462884697,0.1901262403560936z" style="fill:rgb(85,180,235)"/><path d="M83.0741998220671,-40.64313281648002L161.65927075994645,-63.984358518901665L81.90576442062708,-43.03243272148649z" style="fill:rgb(135,24,201)"/><path d="M-199.266934780491,-27.057829168197067L62.78447759340003,-97.28205691362608L62.66930917489889,-99.81224278456313z" style="fill:rgb(83,216,207)"/><path d="M157.36622032007006,-84.06754827767311L77.83564520446238,-62.70275971565327L157.04978693158247,-83.9113295542679z" style="fill:rgb(94,250,134)"/><path d="M163.43632341700533,-62.185692769190894L158.03231142880063,-82.797958876245L163.53484597813016,-60.54050016327449zM109.90619178268304,68.55010560769861L63.04509198779162,-111.86802281506822L108.98156720350092,67.32921794466431z" style="fill:rgb(247,158,158)"/><path d="M157.5883578924504,-79.50766940045835L77.62214629280412,-61.07601804946653L77.84644578784038,-58.24406431050159z" style="fill:rgb(83,212,212)"/><path d="M-177.66757915787977,96.72022616046227L90.7743085820578,27.376025922395005L-179.3108913599767,93.581282864282z" style="fill:rgb(116,62,236)"/><path d="M101.65102788692275,54.349610036677525L-161.94425804920994,119.50076956475544L102.7787450540781,56.666401430602804z" style="fill:rgb(131,29,208)"/><path d="M-202.06100358373257,7.303099893816757L66.14192349835771,-68.73211881126102L-202.19218240100872,3.708550468064542z" style="fill:rgb(86,176,238)"/><path d="M162.5931106209122,-61.48151312597593L84.01187141741518,-39.55282160777596L163.24351123605592,-60.29028917593922z" style="fill:rgb(149,7,163)"/><path d="M163.53484597813016,-60.54050016327449L158.03231142880063,-82.797958876245L157.36622032007006,-84.06754827767311z" style="fill:rgb(247,158,158)"/><path d="M78.48442484676741,-54.54743392023519L157.5883578924504,-79.50766940045835L77.84644578784038,-58.24406431050159z" style="fill:rgb(86,176,237)"/><path d="M81.90576442062708,-43.03243272148649L160.55473468839946,-67.50181179895208L80.64875687232039,-46.43751291137984z" style="fill:rgb(119,53,231)"/><path d="M108.98156720350092,67.32921794466431L63.04509198779162,-111.86802281506822L62.858244915478146,-110.24288114809379z" style="fill:rgb(247,158,158)"/><path d="M-179.3108913599767,93.581282864282L89.52722509782197,23.79067049855568L-180.92066723566293,90.33925366872408z" style="fill:rgb(114,66,238)"/><path d="M77.83564520446238,-62.70275971565327L157.12554484739357,-82.33176890119663L157.04978693158247,-83.9113295542679z" style="fill:rgb(86,237,176)"/><path d="M-199.89093219928253,-24.48611300841513L62.95144515855031,-94.61124574319146L62.78447759340003,-97.28205691362608z" style="fill:rgb(83,213,211)"/><path d="M-201.85060767088834,10.966943702578842L66.76615209486646,-65.01684628275082L-202.06100358373257,7.303099893816757z" style="fill:rgb(87,171,240)"/><path d="M80.64875687232039,-46.43751291137984L159.4157475282379,-71.60300367175243L79.45884160883995,-50.44160149753079z" style="fill:rgb(105,91,247)"/><path d="M159.4157475282379,-71.60300367175243L78.48442484676741,-54.54743392023519L79.45884160883995,-50.44160149753079z" style="fill:rgb(94,134,250)"/><path d="M100.50138721872545,51.885638721623074L-163.73223796388532,117.5060444105471L101.65102788692275,54.349610036677525z" style="fill:rgb(130,32,212)"/><path d="M108.98156720350092,67.32921794466431L62.858244915478146,-110.24288114809379L108.02325800884583,65.94736424654029z" style="fill:rgb(247,158,158)"/><path d="M-180.92066723566293,90.33925366872408L88.28143983418708,20.10999607388814L-182.49349256547896,87.00017107518357z" style="fill:rgb(112,70,240)"/><path d="M163.53484597813016,-60.54050016327449L157.36622032007006,-84.06754827767311L163.24351123605592,-60.29028917593922z" style="fill:rgb(247,158,158)"/><path d="M161.65927075994645,-63.984358518901665L83.0741998220671,-40.64313281648002L162.5931106209122,-61.48151312597593z" style="fill:rgb(135,24,201)"/><path d="M68.1559308316737,-57.338487416388695L-201.85060767088834,10.966943702578842L-201.5610711813867,14.693018250361872z" style="fill:rgb(87,166,242)"/><path d="M-182.49349256547896,87.00017107518357L87.0395096212432,16.341077526149377L-184.0260319513915,83.57031547693235z" style="fill:rgb(111,75,242)"/><path d="M108.02325800884583,65.94736424654029L62.858244915478146,-110.24288114809379L62.72017905424882,-108.46146578554645zM163.24351123605592,-60.29028917593922L157.36622032007006,-84.06754827767311L157.04978693158247,-83.9113295542679z" style="fill:rgb(247,158,158)"/><path d="M77.62214629280412,-61.07601804946653L157.5883578924504,-79.50766940045835L157.12554484739357,-82.33176890119663z" style="fill:rgb(83,212,212)"/><path d="M62.95144515855031,-94.61124574319146L-200.92726895518504,-18.972570102122287L63.1703456323672,-91.80373652121362z" style="fill:rgb(83,209,214)"/><path d="M99.33185839318828,49.27798904795345L-165.51807533818229,115.36909003027614L100.50138721872545,51.885638721623074z" style="fill:rgb(128,35,215)"/><path d="M68.91908678328355,-53.39035741229932L-201.5610711813867,14.693018250361872L-201.19262714151537,18.474052151781777z" style="fill:rgb(88,162,243)"/><path d="M-184.0260319513915,83.57031547693235L85.80400608929139,12.491269910696792L-185.5150058770267,80.05626858361724z" style="fill:rgb(109,79,244)"/><path d="M108.02325800884583,65.94736424654029L62.72017905424882,-108.46146578554645L107.03265840790417,64.4054000496043z" style="fill:rgb(247,158,158)"/><path d="M69.72593974586123,-49.379969061863264L-201.19262714151537,18.474052151781777L-200.74572180853934,22.302580068634914z" style="fill:rgb(89,157,245)"/><path d="M160.55473468839946,-67.50181179895208L81.90576442062708,-43.03243272148649L161.65927075994645,-63.984358518901665z" style="fill:rgb(119,53,231)"/><path d="M-185.5150058770267,80.05626858361724L84.57749923436172,8.568190080654809L-186.95724667031783,76.46485124119303z" style="fill:rgb(108,84,245)"/><path d="M163.24351123605592,-60.29028917593922L157.04978693158247,-83.9113295542679L162.5931106209122,-61.48151312597593z" style="fill:rgb(247,158,158)"/><path d="M70.57498925193981,-45.315390652111276L-200.74572180853934,22.302580068634914L-200.2209936932354,26.170970659095765z" style="fill:rgb(90,152,246)"/><path d="M-186.95724667031783,76.46485124119303L83.36256281070935,4.5796938199070585L-188.34965722787967,72.80312704292294z" style="fill:rgb(106,89,247)"/><path d="M107.03265840790417,64.4054000496043L62.72017905424882,-108.46146578554645L62.631645809873405,-106.52546935250275z" style="fill:rgb(247,158,158)"/><path d="M63.1703456323672,-91.80373652121362L-201.33649679975977,-16.039335549308564L63.44118096409562,-88.86383262625628z" style="fill:rgb(83,205,218)"/><path d="M98.1445517959264,46.530546637103896L-167.2983601077891,113.09284383971432L99.33185839318828,49.27798904795345z" style="fill:rgb(126,39,219)"/><path d="M157.5883578924504,-79.50766940045835L78.48442484676741,-54.54743392023519L158.38419228294438,-75.77824009620194z" style="fill:rgb(86,176,237)"/><path d="M159.4157475282379,-71.60300367175243L80.64875687232039,-46.43751291137984L160.55473468839946,-67.50181179895208z" style="fill:rgb(105,91,247)"/><path d="M71.46460007260062,-41.20486444822694L-200.2209936932354,26.170970659095765L-199.6193107694085,30.071451262553655z" style="fill:rgb(91,147,248)"/><path d="M162.5931106209122,-61.48151312597593L157.04978693158247,-83.9113295542679L157.12554484739357,-82.33176890119663z" style="fill:rgb(247,158,158)"/><path d="M-188.34965722787967,72.80312704292294L82.16174942193211,0.53384998698099L-189.6892379759421,69.07837690026541z" style="fill:rgb(105,93,248)"/><path d="M78.48442484676741,-54.54743392023519L159.4157475282379,-71.60300367175243L158.38419228294438,-75.77824009620194z" style="fill:rgb(94,134,250)"/><path d="M72.39305101762727,-37.056799637444776L-199.6193107694085,30.071451262553655L-198.94166274470808,33.99612351061085z" style="fill:rgb(92,142,249)"/><path d="M107.03265840790417,64.4054000496043L62.631645809873405,-106.52546935250275L106.01127612935674,62.70455176588419z" style="fill:rgb(247,158,158)"/><path d="M-189.6892379759421,69.07837690026541L80.97758738188806,-3.5610823725605143L-190.97312368265483,65.29807007558018z" style="fill:rgb(103,98,249)"/><path d="M80.97758738188806,-3.5610823725605143L-192.1985904919661,61.469842574715976L-190.97312368265483,65.29807007558018z" style="fill:rgb(102,103,250)"/><path d="M73.35848458005653,-32.8797430500105L-198.94166274470808,33.99612351061085L-198.18931437965347,37.936997873103934z" style="fill:rgb(93,137,249)"/><path d="M79.81257419106345,-7.696683204369466L-193.36303303023433,57.60148673669371L-192.1985904919661,61.469842574715976z" style="fill:rgb(100,108,250)"/><path d="M74.35895866138922,-28.68234608124822L-198.18931437965347,37.936997873103934L-197.36368229987895,41.88601762176039z" style="fill:rgb(94,132,250)"/><path d="M63.44118096409562,-88.86383262625628L-201.67127102451428,-12.994742672434699L63.763849585751636,-85.7962233505498z" style="fill:rgb(84,201,221)"/><path d="M96.94165129067869,43.647581980796964L-169.06961670120725,110.68061383961977L98.1445517959264,46.530546637103896z" style="fill:rgb(124,42,222)"/><path d="M162.5931106209122,-61.48151312597593L157.12554484739357,-82.33176890119663L161.65927075994645,-63.984358518901665z" style="fill:rgb(247,158,158)"/><path d="M78.66917136510055,-11.86440024115385L-194.46397129480704,53.70089718605485L-193.36303303023433,57.60148673669371z" style="fill:rgb(99,113,251)"/><path d="M75.39243491167043,-24.473332117747635L-197.36368229987895,41.88601762176039L-196.46634778591147,45.83508098376193z" style="fill:rgb(95,127,250)"/><path d="M77.54979744968541,-16.05557641902799L-195.4991168528313,49.776073567972745L-194.46397129480704,53.70089718605485z" style="fill:rgb(98,118,251)"/><path d="M76.45678995451,-20.26147899407296L-196.46634778591147,45.83508098376193L-195.4991168528313,49.776073567972745z" style="fill:rgb(96,123,251)"/><path d="M106.01127612935674,62.70455176588419L62.631645809873405,-106.52546935250275L62.593298890758476,-104.43693176620462zM161.65927075994645,-63.984358518901665L157.12554484739357,-82.33176890119663L157.5883578924504,-79.50766940045835zM106.01127612935674,62.70455176588419L62.593298890758476,-104.43693176620462L104.96068907778164,60.84639940462194z" style="fill:rgb(247,158,158)"/><path d="M63.763849585751636,-85.7962233505498L-201.93036051938938,-9.843913037703231L64.13810920758084,-82.60596795991067z" style="fill:rgb(84,197,224)"/><path d="M95.7254145086692,40.63375487807719L-170.82835601350408,108.13606216326087L96.94165129067869,43.647581980796964z" style="fill:rgb(123,46,225)"/><path d="M161.65927075994645,-63.984358518901665L157.5883578924504,-79.50766940045835L160.55473468839946,-67.50181179895208zM160.55473468839946,-67.50181179895208L157.5883578924504,-79.50766940045835L158.38419228294438,-75.77824009620194zM104.96068907778164,60.84639940462194L62.593298890758476,-104.43693176620462L62.60570090890065,-102.19825847642845zM160.55473468839946,-67.50181179895208L158.38419228294438,-75.77824009620194L159.4157475282379,-71.60300367175243z" style="fill:rgb(247,158,158)"/><path d="M64.13810920758084,-82.60596795991067L-202.11278987029468,-6.592281688810328L64.56360043857816,-79.29848663220046z" style="fill:rgb(84,193,227)"/><path d="M94.49816224619413,37.494099890762634L-172.5710348520107,105.46320826248875L95.7254145086692,40.63375487807719z" style="fill:rgb(121,50,228)"/><path d="M104.96068907778164,60.84639940462194L62.60570090890065,-102.19825847642845L103.8825851824083,58.83290387408022z" style="fill:rgb(247,158,158)"/><path d="M64.56360043857816,-79.29848663220046L-202.21764930147563,-3.2455900975016547L65.03983386120936,-75.87955107541936z" style="fill:rgb(85,189,230)"/><path d="M93.26226590115779,34.234023845445925L-174.2941556812222,102.66641016159076L94.49816224619413,37.494099890762634z" style="fill:rgb(119,53,231)"/><path d="M103.8825851824083,58.83290387408022L62.60570090890065,-102.19825847642845L62.66930917489889,-99.81224278456313zM103.8825851824083,58.83290387408022L62.66930917489889,-99.81224278456313L102.7787450540781,56.666401430602804z" style="fill:rgb(247,158,158)"/><path d="M65.03983386120936,-75.87955107541936L-202.24428462884697,0.1901262403560936L65.5661933681761,-72.35527374902635z" style="fill:rgb(85,185,233)"/><path d="M92.02016413628603,30.859295630827642L-175.99416738951442,99.75040369739051L93.26226590115779,34.234023845445925z" style="fill:rgb(117,58,233)"/><path d="M102.7787450540781,56.666401430602804L62.66930917489889,-99.81224278456313L62.78447759340003,-97.28205691362608z" style="fill:rgb(247,158,158)"/><path d="M65.5661933681761,-72.35527374902635L-202.19218240100872,3.708550468064542L66.14192349835771,-68.73211881126102z" style="fill:rgb(85,180,235)"/><path d="M90.7743085820578,27.376025922395005L-177.66757915787977,96.72022616046227L92.02016413628603,30.859295630827642z" style="fill:rgb(116,62,236)"/><path d="M102.7787450540781,56.666401430602804L62.78447759340003,-97.28205691362608L101.65102788692275,54.349610036677525z" style="fill:rgb(247,158,158)"/><path d="M66.14192349835771,-68.73211881126102L-202.06100358373257,7.303099893816757L66.76615209486646,-65.01684628275082z" style="fill:rgb(86,176,238)"/><path d="M89.52722509782197,23.79067049855568L-179.3108913599767,93.581282864282L90.7743085820578,27.376025922395005z" style="fill:rgb(114,66,238)"/><path d="M101.65102788692275,54.349610036677525L62.78447759340003,-97.28205691362608L62.95144515855031,-94.61124574319146zM101.65102788692275,54.349610036677525L62.95144515855031,-94.61124574319146L100.50138721872545,51.885638721623074z" style="fill:rgb(247,158,158)"/><path d="M66.76615209486646,-65.01684628275082L-201.85060767088834,10.966943702578842L67.4378658186686,-61.21651763842099z" style="fill:rgb(87,171,240)"/><path d="M88.28143983418708,20.10999607388814L-180.92066723566293,90.33925366872408L89.52722509782197,23.79067049855568z" style="fill:rgb(112,70,240)"/><path d="M-201.85060767088834,10.966943702578842L68.1559308316737,-57.338487416388695L67.4378658186686,-61.21651763842099z" style="fill:rgb(87,166,242)"/><path d="M100.50138721872545,51.885638721623074L62.95144515855031,-94.61124574319146L63.1703456323672,-91.80373652121362z" style="fill:rgb(247,158,158)"/><path d="M87.0395096212432,16.341077526149377L-182.49349256547896,87.00017107518357L88.28143983418708,20.10999607388814z" style="fill:rgb(111,75,242)"/><path d="M-201.5610711813867,14.693018250361872L68.91908678328355,-53.39035741229932L68.1559308316737,-57.338487416388695z" style="fill:rgb(88,162,243)"/><path d="M100.50138721872545,51.885638721623074L63.1703456323672,-91.80373652121362L99.33185839318828,49.27798904795345z" style="fill:rgb(247,158,158)"/><path d="M85.80400608929139,12.491269910696792L-184.0260319513915,83.57031547693235L87.0395096212432,16.341077526149377z" style="fill:rgb(109,79,244)"/><path d="M-201.19262714151537,18.474052151781777L69.72593974586123,-49.379969061863264L68.91908678328355,-53.39035741229932z" style="fill:rgb(89,157,245)"/><path d="M99.33185839318828,49.27798904795345L63.1703456323672,-91.80373652121362L63.44118096409562,-88.86383262625628z" style="fill:rgb(247,158,158)"/><path d="M84.57749923436172,8.568190080654809L-185.5150058770267,80.05626858361724L85.80400608929139,12.491269910696792z" style="fill:rgb(108,84,245)"/><path d="M-200.74572180853934,22.302580068634914L70.57498925193981,-45.315390652111276L69.72593974586123,-49.379969061863264z" style="fill:rgb(90,152,246)"/><path d="M99.33185839318828,49.27798904795345L63.44118096409562,-88.86383262625628L98.1445517959264,46.530546637103896z" style="fill:rgb(247,158,158)"/><path d="M83.36256281070935,4.5796938199070585L-186.95724667031783,76.46485124119303L84.57749923436172,8.568190080654809z" style="fill:rgb(106,89,247)"/><path d="M-200.2209936932354,26.170970659095765L71.46460007260062,-41.20486444822694L70.57498925193981,-45.315390652111276z" style="fill:rgb(91,147,248)"/><path d="M82.16174942193211,0.53384998698099L-188.34965722787967,72.80312704292294L83.36256281070935,4.5796938199070585z" style="fill:rgb(105,93,248)"/><path d="M98.1445517959264,46.530546637103896L63.44118096409562,-88.86383262625628L63.763849585751636,-85.7962233505498z" style="fill:rgb(247,158,158)"/><path d="M-199.6193107694085,30.071451262553655L72.39305101762727,-37.056799637444776L71.46460007260062,-41.20486444822694z" style="fill:rgb(92,142,249)"/><path d="M80.97758738188806,-3.5610823725605143L-189.6892379759421,69.07837690026541L82.16174942193211,0.53384998698099z" style="fill:rgb(103,98,249)"/><path d="M-198.94166274470808,33.99612351061085L73.35848458005653,-32.8797430500105L72.39305101762727,-37.056799637444776z" style="fill:rgb(93,137,249)"/><path d="M-192.1985904919661,61.469842574715976L80.97758738188806,-3.5610823725605143L79.81257419106345,-7.696683204369466z" style="fill:rgb(102,103,250)"/><path d="M98.1445517959264,46.530546637103896L63.763849585751636,-85.7962233505498L96.94165129067869,43.647581980796964z" style="fill:rgb(247,158,158)"/><path d="M-198.18931437965347,37.936997873103934L74.35895866138922,-28.68234608124822L73.35848458005653,-32.8797430500105z" style="fill:rgb(94,132,250)"/><path d="M-193.36303303023433,57.60148673669371L79.81257419106345,-7.696683204369466L78.66917136510055,-11.86440024115385z" style="fill:rgb(100,108,250)"/><path d="M-197.36368229987895,41.88601762176039L75.39243491167043,-24.473332117747635L74.35895866138922,-28.68234608124822z" style="fill:rgb(95,127,250)"/><path d="M-194.46397129480704,53.70089718605485L78.66917136510055,-11.86440024115385L77.54979744968541,-16.05557641902799z" style="fill:rgb(99,113,251)"/><path d="M-196.46634778591147,45.83508098376193L76.45678995451,-20.26147899407296L75.39243491167043,-24.473332117747635z" style="fill:rgb(96,123,251)"/><path d="M-195.4991168528313,49.776073567972745L77.54979744968541,-16.05557641902799L76.45678995451,-20.26147899407296z" style="fill:rgb(98,118,251)"/><path d="M96.94165129067869,43.647581980796964L63.763849585751636,-85.7962233505498L64.13810920758084,-82.60596795991067zM96.94165129067869,43.647581980796964L64.13810920758084,-82.60596795991067L95.7254145086692,40.63375487807719zM95.7254145086692,40.63375487807719L64.13810920758084,-82.60596795991067L64.56360043857816,-79.29848663220046zM95.7254145086692,40.63375487807719L64.56360043857816,-79.29848663220046L94.49816224619413,37.494099890762634zM94.49816224619413,37.494099890762634L64.56360043857816,-79.29848663220046L65.03983386120936,-75.87955107541936zM94.49816224619413,37.494099890762634L65.03983386120936,-75.87955107541936L93.26226590115779,34.234023845445925zM93.26226590115779,34.234023845445925L65.03983386120936,-75.87955107541936L65.5661933681761,-72.35527374902635zM93.26226590115779,34.234023845445925L65.5661933681761,-72.35527374902635L92.02016413628603,30.859295630827642zM92.02016413628603,30.859295630827642L65.5661933681761,-72.35527374902635L66.14192349835771,-68.73211881126102zM92.02016413628603,30.859295630827642L66.14192349835771,-68.73211881126102L90.7743085820578,27.376025922395005zM90.7743085820578,27.376025922395005L66.14192349835771,-68.73211881126102L66.76615209486646,-65.01684628275082zM90.7743085820578,27.376025922395005L66.76615209486646,-65.01684628275082L89.52722509782197,23.79067049855568zM89.52722509782197,23.79067049855568L66.76615209486646,-65.01684628275082L67.4378658186686,-61.21651763842099zM89.52722509782197,23.79067049855568L67.4378658186686,-61.21651763842099L88.28143983418708,20.10999607388814zM88.28143983418708,20.10999607388814L67.4378658186686,-61.21651763842099L68.1559308316737,-57.338487416388695zM88.28143983418708,20.10999607388814L68.1559308316737,-57.338487416388695L87.0395096212432,16.341077526149377zM87.0395096212432,16.341077526149377L68.1559308316737,-57.338487416388695L68.91908678328355,-53.39035741229932zM87.0395096212432,16.341077526149377L68.91908678328355,-53.39035741229932L85.80400608929139,12.491269910696792zM85.80400608929139,12.491269910696792L68.91908678328355,-53.39035741229932L69.72593974586123,-49.379969061863264zM85.80400608929139,12.491269910696792L69.72593974586123,-49.379969061863264L84.57749923436172,8.568190080654809zM84.57749923436172,8.568190080654809L69.72593974586123,-49.379969061863264L70.57498925193981,-45.315390652111276zM84.57749923436172,8.568190080654809L70.57498925193981,-45.315390652111276L83.36256281070935,4.5796938199070585zM83.36256281070935,4.5796938199070585L70.57498925193981,-45.315390652111276L71.46460007260062,-41.20486444822694zM83.36256281070935,4.5796938199070585L71.46460007260062,-41.20486444822694L82.16174942193211,0.53384998698099zM82.16174942193211,0.53384998698099L71.46460007260062,-41.20486444822694L72.39305101762727,-37.056799637444776zM82.16174942193211,0.53384998698099L72.39305101762727,-37.056799637444776L80.97758738188806,-3.5610823725605143zM80.97758738188806,-3.5610823725605143L72.39305101762727,-37.056799637444776L73.35848458005653,-32.8797430500105zM80.97758738188806,-3.5610823725605143L73.35848458005653,-32.8797430500105L79.81257419106345,-7.696683204369466zM79.81257419106345,-7.696683204369466L73.35848458005653,-32.8797430500105L74.35895866138922,-28.68234608124822zM79.81257419106345,-7.696683204369466L74.35895866138922,-28.68234608124822L78.66917136510055,-11.86440024115385zM78.66917136510055,-11.86440024115385L74.35895866138922,-28.68234608124822L75.39243491167043,-24.473332117747635zM78.66917136510055,-11.86440024115385L75.39243491167043,-24.473332117747635L77.54979744968541,-16.05557641902799zM77.54979744968541,-16.05557641902799L75.39243491167043,-24.473332117747635L76.45678995451,-20.26147899407296z" style="fill:rgb(247,158,158)"/></svg>
