<?xml version="1.0" encoding="UTF-8"?>
<!-- Generated by jsxcad -->
<!DOCTYPE svg PUBLIC "-//W3C//DTD SVG 1.1 Tiny//EN" "http://www.w3.org/Graphics/SVG/1.1/DTD/svg11-tiny.dtd">
<svg viewBox="-250 -250 500 500" width="500" height="500" xmlns="http://www.w3.org/2000/svg"><path d="M100.3914843160112,-38.23058717457721L107.42304438464906,-10.40058199238798L104.11067638317716,-24.331845686678935zM107.42304438464906,-10.40058199238798L100.3914843160112,-38.23058717457721L96.37856466539198,-51.669931430795685zM107.42304438464906,-10.40058199238798L96.37856466539198,-51.669931430795685L110.22448793389853,3.134437271017947zM110.22448793389853,3.134437271017947L96.37856466539198,-51.669931430795685L92.19352013404284,-64.22762138433117zM110.22448793389853,3.134437271017947L92.19352013404284,-64.22762138433117L112.42093930356195,15.845367636285149zM112.42093930356195,15.845367636285149L92.19352013404284,-64.22762138433117L87.96586402148563,-75.48983549972816zM112.42093930356195,15.845367636285149L87.96586402148563,-75.48983549972816L113.92995408286335,27.309436110644143zM113.92995408286335,27.309436110644143L87.96586402148563,-75.48983549972816L83.83229124757024,-85.0572856085092zM113.92995408286335,27.309436110644143L83.83229124757024,-85.0572856085092L114.68328959611004,37.11559055052996zM114.68328959611004,37.11559055052996L83.83229124757024,-85.0572856085092L79.93506235527717,-92.55461646136763z" style="fill:rgb(247,158,158)"/><path d="M112.01812245602385,52.89530977428647L-144.9390064541073,113.17888702921523L-139.136902168581,112.60450378322776z" style="fill:rgb(155,4,143)"/><path d="M114.68328959611004,37.11559055052996L79.93506235527717,-92.55461646136763L114.63032005548538,44.87466471593227z" style="fill:rgb(247,158,158)"/><path d="M-184.7123761283955,-25.76243966183702L71.10079475257149,-99.54107104415283L-179.89866724566397,-29.98370014445926z" style="fill:rgb(89,244,159)"/><path d="M114.63032005548538,44.87466471593227L79.93506235527717,-92.55461646136763L76.41935892708646,-97.64373563494416zM114.63032005548538,44.87466471593227L76.41935892708646,-97.64373563494416L113.74246664896654,50.23380433753189z" style="fill:rgb(247,158,158)"/><path d="M-144.9390064541073,113.17888702921523L106.21846502135406,49.34897902817759L-151.36588002165988,110.89216731161498z" style="fill:rgb(148,8,167)"/><path d="M113.74246664896654,50.23380433753189L76.41935892708646,-97.64373563494416L73.42905710643251,-100.04149587782834z" style="fill:rgb(247,158,158)"/><path d="M-144.9390064541073,113.17888702921523L112.01812245602385,52.89530977428647L109.48780131293657,52.63937098269926z" style="fill:rgb(155,4,143)"/><path d="M68.89325945382325,-89.54194690906321L-184.7123761283955,-25.76243966183702L-188.53746690718515,-18.789545971316784z" style="fill:rgb(85,234,182)"/><path d="M113.74246664896654,50.23380433753189L73.42905710643251,-100.04149587782834L112.01812245602385,52.89530977428647z" style="fill:rgb(247,158,158)"/><path d="M-151.36588002165988,110.89216731161498L102.31631427950067,43.034223209283L-158.1736047849806,105.72664733095603z" style="fill:rgb(140,16,189)"/><path d="M71.10079475257149,-99.54107104415283L-184.7123761283955,-25.76243966183702L69.55629148782555,-96.03567465208295z" style="fill:rgb(89,244,159)"/><path d="M106.21846502135406,49.34897902817759L-144.9390064541073,113.17888702921523L109.48780131293657,52.63937098269926z" style="fill:rgb(148,8,167)"/><path d="M112.01812245602385,52.89530977428647L73.42905710643251,-100.04149587782834L71.10079475257149,-99.54107104415283z" style="fill:rgb(247,158,158)"/><path d="M69.17577064966409,-80.2193564856906L-188.53746690718515,-18.789545971316784L-191.17291764425232,-9.259620982026382z" style="fill:rgb(84,220,202)"/><path d="M-158.1736047849806,105.72664733095603L97.92659390675337,33.85199224092317L-165.08176079113193,97.8002864621812z" style="fill:rgb(131,29,208)"/><path d="M-184.7123761283955,-25.76243966183702L68.89325945382325,-89.54194690906321L69.55629148782555,-96.03567465208295z" style="fill:rgb(85,234,182)"/><path d="M112.01812245602385,52.89530977428647L71.10079475257149,-99.54107104415283L109.48780131293657,52.63937098269926z" style="fill:rgb(247,158,158)"/><path d="M-192.46236509904247,2.49285512228919L69.17577064966409,-80.2193564856906L-191.17291764425232,-9.259620982026382z" style="fill:rgb(84,202,220)"/><path d="M102.31631427950067,43.034223209283L-151.36588002165988,110.89216731161498L106.21846502135406,49.34897902817759z" style="fill:rgb(140,16,189)"/><path d="M-165.08176079113193,97.8002864621812L93.2298577272137,22.11659400398966L-171.7860348501618,87.37738532522557z" style="fill:rgb(123,46,225)"/><path d="M109.48780131293657,52.63937098269926L71.10079475257149,-99.54107104415283L69.55629148782555,-96.03567465208295z" style="fill:rgb(247,158,158)"/><path d="M-192.30951015573342,15.998608245343357L70.42527944324473,-68.38121867226853L-192.46236509904247,2.49285512228919z" style="fill:rgb(85,182,234)"/><path d="M-188.53746690718515,-18.789545971316784L69.17577064966409,-80.2193564856906L68.89325945382325,-89.54194690906321z" style="fill:rgb(84,220,202)"/><path d="M109.48780131293657,52.63937098269926L69.55629148782555,-96.03567465208295L106.21846502135406,49.34897902817759z" style="fill:rgb(247,158,158)"/><path d="M-171.7860348501618,87.37738532522557L88.43380793500488,8.297094453554308L-177.97564852319232,74.86752124562864z" style="fill:rgb(114,65,238)"/><path d="M97.92659390675337,33.85199224092317L-158.1736047849806,105.72664733095603L102.31631427950067,43.034223209283z" style="fill:rgb(131,29,208)"/><path d="M75.66064146991931,-39.15580322421983L-192.30951015573342,15.998608245343357L-190.69047929095342,30.67243164675105z" style="fill:rgb(89,159,244)"/><path d="M-177.97564852319232,74.86752124562864L83.7612032249209,-7.001368454894142L-183.35402739502626,60.81032640213106z" style="fill:rgb(106,87,246)"/><path d="M83.7612032249209,-7.001368454894142L-187.66059859990148,45.84577204650863L-183.35402739502626,60.81032640213106z" style="fill:rgb(99,111,250)"/><path d="M79.43471208481368,-23.072334111019973L-190.69047929095342,30.67243164675105L-187.66059859990148,45.84577204650863z" style="fill:rgb(93,135,250)"/><path d="M77.92333401974226,-62.84901193609851L157.25299905928895,-84.15837731393569L78.26720048939406,-63.00732562443741z" style="fill:rgb(93,250,135)"/><path d="M106.21846502135406,49.34897902817759L69.55629148782555,-96.03567465208295L68.89325945382325,-89.54194690906321z" style="fill:rgb(247,158,158)"/><path d="M163.35314847707144,-60.209664004222695L83.75169727104984,-39.73651715620114L84.19690805521596,-39.49398260628472z" style="fill:rgb(155,4,143)"/><path d="M160.8241172736633,-74.0520455969794L162.00104740792708,-69.43203776137162L161.43404251939054,-71.73355902008541zM162.00104740792708,-69.43203776137162L160.8241172736633,-74.0520455969794L160.1938745617651,-76.30136442697956zM162.00104740792708,-69.43203776137162L160.1938745617651,-76.30136442697956L162.5039995636826,-67.23302667188979zM162.5039995636826,-67.23302667188979L160.1938745617651,-76.30136442697956L159.56676298018897,-78.39770018192608z" style="fill:rgb(247,158,158)"/><path d="M77.7055941056271,-62.24265496597149L157.0810121951164,-84.04481861995745L77.92333401974226,-62.84901193609851z" style="fill:rgb(89,244,159)"/><path d="M162.5039995636826,-67.23302667188979L159.56676298018897,-78.39770018192608L162.9240344130066,-65.21864266326608zM162.9240344130066,-65.21864266326608L159.56676298018897,-78.39770018192608L158.96619738708455,-80.26235918242624z" style="fill:rgb(247,158,158)"/><path d="M83.75169727104984,-39.73651715620114L162.6930020655154,-61.2496245045606L83.2072439347583,-40.42480716655325z" style="fill:rgb(148,8,167)"/><path d="M162.9240344130066,-65.21864266326608L158.96619738708455,-80.26235918242624L163.24519918859664,-63.46477198794109z" style="fill:rgb(247,158,158)"/><path d="M69.17577064966409,-80.2193564856906L-192.46236509904247,2.49285512228919L70.42527944324473,-68.38121867226853z" style="fill:rgb(84,202,220)"/><path d="M163.24519918859664,-63.46477198794109L158.96619738708455,-80.26235918242624L158.41477034580868,-81.8244974201135z" style="fill:rgb(247,158,158)"/><path d="M93.2298577272137,22.11659400398966L-165.08176079113193,97.8002864621812L97.92659390675337,33.85199224092317z" style="fill:rgb(123,46,225)"/><path d="M157.11027636469655,-82.46291159291036L77.7055941056271,-62.24265496597149L77.62324920894778,-61.20898089118092z" style="fill:rgb(85,234,182)"/><path d="M163.24519918859664,-63.46477198794109L158.41477034580868,-81.8244974201135L163.45496935883276,-62.03839744530794z" style="fill:rgb(247,158,158)"/><path d="M83.2072439347583,-40.42480716655325L162.21464878051825,-62.42213034915622L82.58413230487908,-41.534827815919705z" style="fill:rgb(140,16,189)"/><path d="M106.21846502135406,49.34897902817759L68.89325945382325,-89.54194690906321L102.31631427950067,43.034223209283zM163.45496935883276,-62.03839744530794L158.41477034580868,-81.8244974201135L157.93352311367667,-83.02376810857969z" style="fill:rgb(247,158,158)"/><path d="M157.31193101935426,-81.05071249526576L77.62324920894778,-61.20898089118092L77.6803128312435,-59.7858859983019z" style="fill:rgb(84,220,202)"/><path d="M157.25299905928895,-84.15837731393569L77.92333401974226,-62.84901193609851L157.0810121951164,-84.04481861995745z" style="fill:rgb(93,250,135)"/><path d="M163.45496935883276,-62.03839744530794L157.93352311367667,-83.02376810857969L163.54487596506934,-60.995072318297275z" style="fill:rgb(247,158,158)"/><path d="M82.58413230487908,-41.534827815919705L161.66041382254727,-63.97745336442868L81.90633258500638,-43.02551309597083z" style="fill:rgb(131,29,208)"/><path d="M83.75169727104984,-39.73651715620114L163.35314847707144,-60.209664004222695L163.0772739671618,-60.50340480632192z" style="fill:rgb(155,4,143)"/><path d="M77.87528724035018,-58.02727934450033L157.31193101935426,-81.05071249526576L77.6803128312435,-59.7858859983019z" style="fill:rgb(84,202,220)"/><path d="M163.54487596506934,-60.995072318297275L157.93352311367667,-83.02376810857969L157.54109626080486,-83.81262299978525z" style="fill:rgb(247,158,158)"/><path d="M81.90633258500638,-43.02551309597083L161.0517178104987,-65.85626963655824L81.20025298472372,-44.84005487115066z" style="fill:rgb(123,46,225)"/><path d="M162.6930020655154,-61.2496245045606L83.75169727104984,-39.73651715620114L163.0772739671618,-60.50340480632192z" style="fill:rgb(148,8,167)"/><path d="M157.0810121951164,-84.04481861995745L77.7055941056271,-62.24265496597149L157.03253724149923,-83.4732395603727z" style="fill:rgb(89,244,159)"/><path d="M78.20106200108359,-56.00113956699786L157.6302685948866,-79.29002862118654L77.87528724035018,-58.02727934450033z" style="fill:rgb(85,182,234)"/><path d="M163.54487596506934,-60.995072318297275L157.54109626080486,-83.81262299978525L163.5107694570967,-60.37670274708952z" style="fill:rgb(247,158,158)"/><path d="M81.20025298472372,-44.84005487115066L160.412437975685,-67.98560042158293L80.4937149413842,-46.90803455058958z" style="fill:rgb(114,65,238)"/><path d="M158.56432104992072,-75.00723238300975L78.20106200108359,-56.00113956699786L78.64517548948649,-53.78684598216828z" style="fill:rgb(89,159,244)"/><path d="M163.5107694570967,-60.37670274708952L157.54109626080486,-83.81262299978525L157.25299905928895,-84.15837731393569z" style="fill:rgb(247,158,158)"/><path d="M77.7055941056271,-62.24265496597149L157.11027636469655,-82.46291159291036L157.03253724149923,-83.4732395603727z" style="fill:rgb(85,234,182)"/><path d="M80.4937149413842,-46.90803455058958L159.76784104826376,-70.28172909074925L79.81470498886193,-49.1482088069043z" style="fill:rgb(106,87,246)"/><path d="M159.76784104826376,-70.28172909074925L79.19025153010601,-51.471907610417226L79.81470498886193,-49.1482088069043z" style="fill:rgb(99,111,250)"/><path d="M159.1435165768331,-72.65369072406476L78.64517548948649,-53.78684598216828L79.19025153010601,-51.471907610417226z" style="fill:rgb(93,135,250)"/><path d="M162.21464878051825,-62.42213034915622L83.2072439347583,-40.42480716655325L162.6930020655154,-61.2496245045606z" style="fill:rgb(140,16,189)"/><path d="M163.5107694570967,-60.37670274708952L157.25299905928895,-84.15837731393569L163.35314847707144,-60.209664004222695z" style="fill:rgb(247,158,158)"/><path d="M77.62324920894778,-61.20898089118092L157.31193101935426,-81.05071249526576L157.11027636469655,-82.46291159291036z" style="fill:rgb(84,220,202)"/><path d="M102.31631427950067,43.034223209283L68.89325945382325,-89.54194690906321L69.17577064966409,-80.2193564856906z" style="fill:rgb(247,158,158)"/><path d="M70.42527944324473,-68.38121867226853L-192.30951015573342,15.998608245343357L72.61375209025329,-54.49309188528567z" style="fill:rgb(85,182,234)"/><path d="M163.35314847707144,-60.209664004222695L157.25299905928895,-84.15837731393569L157.0810121951164,-84.04481861995745z" style="fill:rgb(247,158,158)"/><path d="M88.43380793500488,8.297094453554308L-171.7860348501618,87.37738532522557L93.2298577272137,22.11659400398966z" style="fill:rgb(114,65,238)"/><path d="M161.66041382254727,-63.97745336442868L82.58413230487908,-41.534827815919705L162.21464878051825,-62.42213034915622z" style="fill:rgb(131,29,208)"/><path d="M163.35314847707144,-60.209664004222695L157.0810121951164,-84.04481861995745L163.0772739671618,-60.50340480632192z" style="fill:rgb(247,158,158)"/><path d="M161.0517178104987,-65.85626963655824L81.90633258500638,-43.02551309597083L161.66041382254727,-63.97745336442868z" style="fill:rgb(123,46,225)"/><path d="M157.31193101935426,-81.05071249526576L77.87528724035018,-58.02727934450033L157.6302685948866,-79.29002862118654z" style="fill:rgb(84,202,220)"/><path d="M163.0772739671618,-60.50340480632192L157.0810121951164,-84.04481861995745L157.03253724149923,-83.4732395603727zM163.0772739671618,-60.50340480632192L157.03253724149923,-83.4732395603727L162.6930020655154,-61.2496245045606z" style="fill:rgb(247,158,158)"/><path d="M160.412437975685,-67.98560042158293L81.20025298472372,-44.84005487115066L161.0517178104987,-65.85626963655824z" style="fill:rgb(114,65,238)"/><path d="M157.6302685948866,-79.29002862118654L78.20106200108359,-56.00113956699786L158.0531958948158,-77.24887930877004z" style="fill:rgb(85,182,234)"/><path d="M78.20106200108359,-56.00113956699786L158.56432104992072,-75.00723238300975L158.0531958948158,-77.24887930877004z" style="fill:rgb(89,159,244)"/><path d="M159.76784104826376,-70.28172909074925L80.4937149413842,-46.90803455058958L160.412437975685,-67.98560042158293z" style="fill:rgb(106,87,246)"/><path d="M-192.30951015573342,15.998608245343357L75.66064146991931,-39.15580322421983L72.61375209025329,-54.49309188528567z" style="fill:rgb(89,159,244)"/><path d="M162.6930020655154,-61.2496245045606L157.03253724149923,-83.4732395603727L157.11027636469655,-82.46291159291036z" style="fill:rgb(247,158,158)"/><path d="M78.64517548948649,-53.78684598216828L159.1435165768331,-72.65369072406476L158.56432104992072,-75.00723238300975z" style="fill:rgb(93,135,250)"/><path d="M79.19025153010601,-51.471907610417226L159.76784104826376,-70.28172909074925L159.1435165768331,-72.65369072406476z" style="fill:rgb(99,111,250)"/><path d="M102.31631427950067,43.034223209283L69.17577064966409,-80.2193564856906L97.92659390675337,33.85199224092317zM162.6930020655154,-61.2496245045606L157.11027636469655,-82.46291159291036L162.21464878051825,-62.42213034915622z" style="fill:rgb(247,158,158)"/><path d="M83.7612032249209,-7.001368454894142L-177.97564852319232,74.86752124562864L88.43380793500488,8.297094453554308z" style="fill:rgb(106,87,246)"/><path d="M162.21464878051825,-62.42213034915622L157.11027636469655,-82.46291159291036L157.31193101935426,-81.05071249526576zM162.21464878051825,-62.42213034915622L157.31193101935426,-81.05071249526576L161.66041382254727,-63.97745336442868zM161.66041382254727,-63.97745336442868L157.31193101935426,-81.05071249526576L157.6302685948866,-79.29002862118654z" style="fill:rgb(247,158,158)"/><path d="M-190.69047929095342,30.67243164675105L79.43471208481368,-23.072334111019973L75.66064146991931,-39.15580322421983z" style="fill:rgb(93,135,250)"/><path d="M161.66041382254727,-63.97745336442868L157.6302685948866,-79.29002862118654L161.0517178104987,-65.85626963655824z" style="fill:rgb(247,158,158)"/><path d="M-187.66059859990148,45.84577204650863L83.7612032249209,-7.001368454894142L79.43471208481368,-23.072334111019973z" style="fill:rgb(99,111,250)"/><path d="M161.0517178104987,-65.85626963655824L157.6302685948866,-79.29002862118654L158.0531958948158,-77.24887930877004zM161.0517178104987,-65.85626963655824L158.0531958948158,-77.24887930877004L160.412437975685,-67.98560042158293zM160.412437975685,-67.98560042158293L158.0531958948158,-77.24887930877004L158.56432104992072,-75.00723238300975zM160.412437975685,-67.98560042158293L158.56432104992072,-75.00723238300975L159.76784104826376,-70.28172909074925zM159.76784104826376,-70.28172909074925L158.56432104992072,-75.00723238300975L159.1435165768331,-72.65369072406476zM97.92659390675337,33.85199224092317L69.17577064966409,-80.2193564856906L70.42527944324473,-68.38121867226853zM97.92659390675337,33.85199224092317L70.42527944324473,-68.38121867226853L93.2298577272137,22.11659400398966zM93.2298577272137,22.11659400398966L70.42527944324473,-68.38121867226853L72.61375209025329,-54.49309188528567zM93.2298577272137,22.11659400398966L72.61375209025329,-54.49309188528567L88.43380793500488,8.297094453554308zM88.43380793500488,8.297094453554308L72.61375209025329,-54.49309188528567L75.66064146991931,-39.15580322421983zM88.43380793500488,8.297094453554308L75.66064146991931,-39.15580322421983L83.7612032249209,-7.001368454894142zM83.7612032249209,-7.001368454894142L75.66064146991931,-39.15580322421983L79.43471208481368,-23.072334111019973z" style="fill:rgb(247,158,158)"/></svg>
