<?xml version="1.0" encoding="UTF-8"?>
<!-- Generated by jsxcad -->
<!DOCTYPE svg PUBLIC "-//W3C//DTD SVG 1.1 Tiny//EN" "http://www.w3.org/Graphics/SVG/1.1/DTD/svg11-tiny.dtd">
<svg baseProfile="tiny" height="80.00000000000004mm" width="37.00000000000003mm" viewBox="0 0 37.00000000000003 80.00000000000004" version="1.1" stroke="black" stroke-width=".1" fill="none" xmlns="http://www.w3.org/2000/svg">
<path fill="#c0c0c0" stroke="#c0c0c0" d="M17.47394 40.00000000000002 L16.57164 40.00000000000002 L15.90192 40.00000000000002 L15.54558 40.00000000000002 L15.54558 40.00000000000002 L15.90192 40.00000000000002 L16.57164 40.00000000000002 L17.47394 40.00000000000002 L18.5 40.00000000000002 L19.52606 40.00000000000002 L20.42836 40.00000000000002 L21.09808 40.00000000000002 L21.45442 40.00000000000002 L21.45442 40.00000000000002 L21.09808 40.00000000000002 L20.42836 40.00000000000002 L19.52606 40.00000000000002 L18.5 40.00000000000002 z"/>
<path fill="#c0c0c0" stroke="#c0c0c0" d="M21.09807656073256 60 L21.09807656073256 40 L21.45442427385829 40 L21.45442427385829 60 z"/>
<path fill="#c0c0c0" stroke="#c0c0c0" d="M19.52605923587634 60 L19.52605923587634 40 L20.428362172258517 40 L20.428362172258517 60 z"/>
<path fill="#c0c0c0" stroke="#c0c0c0" d="M20.428363331327944 60 L20.428363331327944 40 L21.098077714388854 40 L21.098077714388854 60 z"/>
<path fill="#c0c0c0" stroke="#c0c0c0" d="M21.45442427385829 60 L21.45442427385829 40 L21.09807656073256 40 L21.09807656073256 60 z"/>
<path fill="#c0c0c0" stroke="#c0c0c0" d="M20.428362172258517 60 L20.428362172258517 40 L19.52605923587634 40 L19.52605923587634 60 z"/>
<path fill="#c0c0c0" stroke="#c0c0c0" d="M20.428363331327944 40 L20.428363331327944 60 L21.098077714388854 60 L21.098077714388854 40 z"/>
<path fill="#c0c0c0" stroke="#c0c0c0" d="M21.454423189163222 40 L21.454423189163222 60 L21.454423189163222 60 L21.454423189163222 40 z"/>
<path fill="#c0c0c0" stroke="#c0c0c0" d="M18.5 60 L18.5 40 L17.473940333459172 40 L17.473940333459172 60 z"/>
<path fill="#c0c0c0" stroke="#c0c0c0" d="M16.571637827741487 40 L16.571637827741487 60 L17.473940764123665 60 L17.473940764123665 40 z"/>
<path fill="#c0c0c0" stroke="#c0c0c0" d="M15.901922285611159 40 L15.901922285611159 60 L16.57163666867207 60 L16.57163666867207 40 z"/>
<path fill="#c0c0c0" stroke="#c0c0c0" d="M18.5 40 L18.5 60 L19.526059666540828 60 L19.526059666540828 40 z"/>
<path fill="#c0c0c0" stroke="#c0c0c0" d="M15.545575726141731 40 L15.545575726141731 60 L15.901923439267462 60 L15.901923439267462 40 z"/>
<path fill="#c0c0c0" stroke="#c0c0c0" d="M15.545576810836806 40 L15.545576810836806 60 L15.545576810836806 60 L15.545576810836806 40 z"/>
<path fill="#c0c0c0" stroke="#c0c0c0" d="M15.901922285611159 60 L15.901922285611159 40 L16.57163666867207 40 L16.57163666867207 60 z"/>
<path fill="#c0c0c0" stroke="#c0c0c0" d="M15.901923439267462 40 L15.901923439267462 60 L15.545575726141731 60 L15.545575726141731 40 z"/>
<path fill="#c0c0c0" stroke="#c0c0c0" d="M18.5 60 L18.5 40 L19.526059666540828 40 L19.526059666540828 60 z"/>
<path fill="#c0c0c0" stroke="#c0c0c0" d="M17.473940333459172 60 L17.473940333459172 40 L18.5 40 L18.5 60 z"/>
<path fill="#c0c0c0" stroke="#c0c0c0" d="M17.473940764123665 40 L17.473940764123665 60 L16.571637827741487 60 L16.571637827741487 40 z"/>
<path fill="#c0c0c0" stroke="#c0c0c0" d="M16.57164 60.00000000000002 L17.47394 60.00000000000002 L18.5 60.00000000000002 L19.52606 60.00000000000002 L20.42836 60.00000000000002 L21.09808 60.00000000000002 L21.45442 60.00000000000002 L21.45442 60.00000000000002 L21.09808 60.00000000000002 L20.42836 60.00000000000002 L19.52606 60.00000000000002 L18.5 60.00000000000002 L17.47394 60.00000000000002 L16.57164 60.00000000000002 L15.90192 60.00000000000002 L15.54558 60.00000000000002 L15.54558 60.00000000000002 L15.90192 60.00000000000002 z"/>
<path fill="#c0c0c0" stroke="#c0c0c0" d="M17.49743 40.00000000000002 L16.52083 40.00000000000002 L15.59548 40.00000000000002 L14.74536 40.00000000000002 L13.99248 40.00000000000002 L13.35635 40.00000000000002 L12.85343 40.00000000000002 L12.49676 40.00000000000002 L12.29557 40.00000000000002 L12.25507 40.00000000000002 L12.37631 40.00000000000002 L12.65615 40.00000000000002 L13.08734 40.00000000000002 L13.65872 40.00000000000002 L14.35548 40.00000000000002 L15.15959 40.00000000000002 L16.05021 40.00000000000002 L17.00428 40.00000000000002 L17.99708 40.00000000000002 L19.00292 40.00000000000002 L19.99572 40.00000000000002 L20.94979 40.00000000000002 L21.84041 40.00000000000002 L22.64452 40.00000000000002 L23.34128 40.00000000000002 L23.91266 40.00000000000002 L24.34385 40.00000000000002 L24.62369 40.00000000000002 L24.74493 40.00000000000002 L24.70443 40.00000000000002 L24.50324 40.00000000000002 L24.14657 40.00000000000002 L23.64365 40.00000000000002 L23.00752 40.00000000000002 L22.25464 40.00000000000002 L21.40452 40.00000000000002 L20.47917 40.00000000000002 L19.50257 40.00000000000002 L18.5 40.00000000000002 z"/>
<path fill="#c0c0c0" stroke="#c0c0c0" d="M18.5 46 L18.5 40 L19.502570327729988 40 L19.502570327729988 46 z"/>
<path fill="#c0c0c0" stroke="#c0c0c0" d="M20.47917094296406 40 L20.47917094296406 46 L19.50257096909452 46 L19.50257096909452 40 z"/>
<path fill="#c0c0c0" stroke="#c0c0c0" d="M21.40451998879847 40 L21.40451998879847 46 L20.47917178533283 46 L20.47917178533283 40 z"/>
<path fill="#c0c0c0" stroke="#c0c0c0" d="M23.6436516891022 40 L23.6436516891022 46 L23.00751597374502 46 L23.00751597374502 40 z"/>
<path fill="#c0c0c0" stroke="#c0c0c0" d="M22.254638226635763 46 L22.254638226635763 40 L23.007516689225266 40 L23.007516689225266 46 z"/>
<path fill="#c0c0c0" stroke="#c0c0c0" d="M22.254638483592228 40 L22.254638483592228 46 L21.404519966991405 46 L21.404519966991405 40 z"/>
<path fill="#c0c0c0" stroke="#c0c0c0" d="M24.14656590319014 40 L24.14656590319014 46 L23.64365129556489 46 L23.64365129556489 40 z"/>
<path fill="#c0c0c0" stroke="#c0c0c0" d="M24.50323815434233 40 L24.50323815434233 46 L24.146565494350885 46 L24.146565494350885 40 z"/>
<path fill="#c0c0c0" stroke="#c0c0c0" d="M24.704430750245177 46 L24.704430750245177 40 L24.744931133125874 40 L24.744931133125874 46 z"/>
<path fill="#c0c0c0" stroke="#c0c0c0" d="M24.704431390128462 40 L24.704431390128462 46 L24.50323811174855 46 L24.50323811174855 40 z"/>
<path fill="#c0c0c0" stroke="#c0c0c0" d="M24.623691604982252 40 L24.623691604982252 46 L24.744931458752507 46 L24.744931458752507 40 z"/>
<path fill="#c0c0c0" stroke="#c0c0c0" d="M24.343851456759193 46 L24.343851456759193 40 L23.912658931896186 40 L23.912658931896186 46 z"/>
<path fill="#c0c0c0" stroke="#c0c0c0" d="M24.343851568096927 40 L24.343851568096927 46 L24.62369159181182 46 L24.62369159181182 40 z"/>
<path fill="#c0c0c0" stroke="#c0c0c0" d="M22.64451975246611 46 L22.64451975246611 40 L21.8404094582227 40 L21.8404094582227 46 z"/>
<path fill="#c0c0c0" stroke="#c0c0c0" d="M23.3412823105915 40 L23.3412823105915 46 L23.912659113686264 46 L23.912659113686264 40 z"/>
<path fill="#c0c0c0" stroke="#c0c0c0" d="M23.341282278309688 46 L23.341282278309688 40 L22.644519231384322 40 L22.644519231384322 46 z"/>
<path fill="#c0c0c0" stroke="#c0c0c0" d="M20.949790969863912 40 L20.949790969863912 46 L21.840409402953235 46 L21.840409402953235 40 z"/>
<path fill="#c0c0c0" stroke="#c0c0c0" d="M19.995719254931927 40 L19.995719254931927 46 L20.949790639516973 46 L20.949790639516973 40 z"/>
<path fill="#c0c0c0" stroke="#c0c0c0" d="M19.002920371511625 40 L19.002920371511625 46 L19.995719528857887 46 L19.995719528857887 40 z"/>
<path fill="#c0c0c0" stroke="#c0c0c0" d="M17.99708 40 L17.99708 46 L19.00292 46 L19.00292 40 z"/>
<path fill="#c0c0c0" stroke="#c0c0c0" d="M17.00428047114211 40 L17.00428047114211 46 L17.997079628488372 46 L17.997079628488372 40 z"/>
<path fill="#c0c0c0" stroke="#c0c0c0" d="M16.050209360483027 40 L16.050209360483027 46 L17.004280745068073 46 L17.004280745068073 40 z"/>
<path fill="#c0c0c0" stroke="#c0c0c0" d="M15.159590597046767 40 L15.159590597046767 46 L16.05020903013609 46 L16.05020903013609 40 z"/>
<path fill="#c0c0c0" stroke="#c0c0c0" d="M14.355480247533897 40 L14.355480247533897 46 L15.159590541777305 46 L15.159590541777305 40 z"/>
<path fill="#c0c0c0" stroke="#c0c0c0" d="M13.658717721690326 40 L13.658717721690326 46 L14.35548076861569 46 L14.35548076861569 40 z"/>
<path fill="#c0c0c0" stroke="#c0c0c0" d="M13.087340886313752 40 L13.087340886313752 46 L13.658717689408517 46 L13.658717689408517 40 z"/>
<path fill="#c0c0c0" stroke="#c0c0c0" d="M12.656148543240828 40 L12.656148543240828 46 L13.087341068103834 46 L13.087341068103834 40 z"/>
<path fill="#c0c0c0" stroke="#c0c0c0" d="M12.376308408188205 40 L12.376308408188205 46 L12.656148431903098 46 L12.656148431903098 40 z"/>
<path fill="#c0c0c0" stroke="#c0c0c0" d="M12.255068541247518 40 L12.255068541247518 46 L12.376308395017775 46 L12.376308395017775 40 z"/>
<path fill="#c0c0c0" stroke="#c0c0c0" d="M12.29556924975485 40 L12.29556924975485 46 L12.25506886687415 46 L12.25506886687415 40 z"/>
<path fill="#c0c0c0" stroke="#c0c0c0" d="M12.496761888251475 40 L12.496761888251475 46 L12.295568609871564 46 L12.295568609871564 40 z"/>
<path fill="#c0c0c0" stroke="#c0c0c0" d="M12.853434505649137 40 L12.853434505649137 46 L12.496761845657693 46 L12.496761845657693 40 z"/>
<path fill="#c0c0c0" stroke="#c0c0c0" d="M13.992483310774743 46 L13.992483310774743 40 L14.745361773364246 40 L14.745361773364246 46 z"/>
<path fill="#c0c0c0" stroke="#c0c0c0" d="M13.35634870443513 40 L13.35634870443513 46 L12.853434096809877 46 L12.853434096809877 40 z"/>
<path fill="#c0c0c0" stroke="#c0c0c0" d="M13.356348310897816 46 L13.356348310897816 40 L13.992484026254994 40 L13.992484026254994 46 z"/>
<path fill="#c0c0c0" stroke="#c0c0c0" d="M15.595480033008602 40 L15.595480033008602 46 L14.745361516407774 46 L14.745361516407774 40 z"/>
<path fill="#c0c0c0" stroke="#c0c0c0" d="M16.52082821466717 40 L16.52082821466717 46 L15.595480011201532 46 L15.595480011201532 40 z"/>
<path fill="#c0c0c0" stroke="#c0c0c0" d="M17.49742967227001 46 L17.49742967227001 40 L18.5 40 L18.5 46 z"/>
<path fill="#c0c0c0" stroke="#c0c0c0" d="M17.497429030905476 40 L17.497429030905476 46 L16.520829057035936 46 L16.520829057035936 40 z"/>
<path fill="#c0c0c0" stroke="#c0c0c0" d="M16.52083 46.00000000000002 L17.49743 46.00000000000002 L18.5 46.00000000000002 L19.50257 46.00000000000002 L20.47917 46.00000000000002 L21.40452 46.00000000000002 L22.25464 46.00000000000002 L23.00752 46.00000000000002 L23.64365 46.00000000000002 L24.14657 46.00000000000002 L24.50324 46.00000000000002 L24.70443 46.00000000000002 L24.74493 46.00000000000002 L24.62369 46.00000000000002 L24.34385 46.00000000000002 L23.91266 46.00000000000002 L23.34128 46.00000000000002 L22.64452 46.00000000000002 L21.84041 46.00000000000002 L20.94979 46.00000000000002 L19.99572 46.00000000000002 L19.00292 46.00000000000002 L17.99708 46.00000000000002 L17.00428 46.00000000000002 L16.05021 46.00000000000002 L15.15959 46.00000000000002 L14.35548 46.00000000000002 L13.65872 46.00000000000002 L13.08734 46.00000000000002 L12.65615 46.00000000000002 L12.37631 46.00000000000002 L12.25507 46.00000000000002 L12.29557 46.00000000000002 L12.49676 46.00000000000002 L12.85343 46.00000000000002 L13.35635 46.00000000000002 L13.99248 46.00000000000002 L14.74536 46.00000000000002 L15.59548 46.00000000000002 z"/>
<path fill="#c0c0c0" stroke="#c0c0c0" d="M17.33838 40.00000000000002 L16.18134 40.00000000000002 L15.03345 40.00000000000002 L13.89924 40.00000000000002 L12.78319 40.00000000000002 L11.6897 40.00000000000002 L10.62308 40.00000000000002 L9.58756 40.00000000000002 L8.5872 40.00000000000002 L7.62597 40.00000000000002 L6.70766 40.00000000000002 L5.83588 40.00000000000002 L5.01408 40.00000000000002 L4.24551 40.00000000000002 L3.53319 40.00000000000002 L2.87993 40.00000000000002 L2.28833 40.00000000000002 L1.7607 40.00000000000002 L1.29914 40.00000000000002 L0.90545 40.00000000000002 L0.58121 40.00000000000002 L0.32769 40.00000000000002 L0.14588 40.00000000000002 L0.0365 40.00000000000002 L0 40.00000000000002 L0.0365 40.00000000000002 L0.14588 40.00000000000002 L0.32769 40.00000000000002 L0.58121 40.00000000000002 L0.90545 40.00000000000002 L1.29914 40.00000000000002 L1.7607 40.00000000000002 L2.28833 40.00000000000002 L2.87993 40.00000000000002 L3.53319 40.00000000000002 L4.24551 40.00000000000002 L5.01408 40.00000000000002 L5.83588 40.00000000000002 L6.70766 40.00000000000002 L7.62597 40.00000000000002 L8.5872 40.00000000000002 L9.58756 40.00000000000002 L10.62308 40.00000000000002 L11.6897 40.00000000000002 L12.78319 40.00000000000002 L13.89924 40.00000000000002 L15.03345 40.00000000000002 L16.18134 40.00000000000002 L17.33838 40.00000000000002 L18.5 40.00000000000002 L19.66162 40.00000000000002 L20.81866 40.00000000000002 L21.96655 40.00000000000002 L23.10076 40.00000000000002 L24.21681 40.00000000000002 L25.3103 40.00000000000002 L26.37692 40.00000000000002 L27.41244 40.00000000000002 L28.4128 40.00000000000002 L29.37403 40.00000000000002 L30.29234 40.00000000000002 L31.16412 40.00000000000002 L31.98592 40.00000000000002 L32.75449 40.00000000000002 L33.46681 40.00000000000002 L34.12007 40.00000000000002 L34.71167 40.00000000000002 L35.2393 40.00000000000002 L35.70086 40.00000000000002 L36.09455 40.00000000000002 L36.41879 40.00000000000002 L36.67231 40.00000000000002 L36.85412 40.00000000000002 L36.9635 40.00000000000002 L37 40.00000000000002 L36.9635 40.00000000000002 L36.85412 40.00000000000002 L36.67231 40.00000000000002 L36.41879 40.00000000000002 L36.09455 40.00000000000002 L35.70086 40.00000000000002 L35.2393 40.00000000000002 L34.71167 40.00000000000002 L34.12007 40.00000000000002 L33.46681 40.00000000000002 L32.75449 40.00000000000002 L31.98592 40.00000000000002 L31.16412 40.00000000000002 L30.29234 40.00000000000002 L29.37403 40.00000000000002 L28.4128 40.00000000000002 L27.41244 40.00000000000002 L26.37692 40.00000000000002 L25.3103 40.00000000000002 L24.21681 40.00000000000002 L23.10076 40.00000000000002 L21.96655 40.00000000000002 L20.81866 40.00000000000002 L19.66162 40.00000000000002 L18.5 40.00000000000002 z"/>
<path fill="#c0c0c0" stroke="#c0c0c0" d="M9.15736 40.00000000000002 L9.41211 40.00000000000002 L10.34738 40.00000000000002 L11.4233 40.00000000000002 L12.22891 40.00000000000002 L12.45649 40.00000000000002 L12.01911 40.00000000000002 L11.97222 40.00000000000002 L11.08385 40.00000000000002 L10.00792 40.00000000000002 L9.20232 40.00000000000002 L8.97474 40.00000000000002 z"/>
<path fill="#c0c0c0" stroke="#c0c0c0" d="M4.66541 40.00000000000002 L4.03137 40.00000000000002 L3.00339 40.00000000000002 L2.26864 40.00000000000002 L1.97413 40.00000000000002 L1.33672 40.00000000000002 L1.33532 40.00000000000002 L1.33464 40.00000000000002 L1.96868 40.00000000000002 L2.99666 40.00000000000002 L4.02593 40.00000000000002 L4.66333 40.00000000000002 z"/>
<path fill="#c0c0c0" stroke="#c0c0c0" d="M10.05337 40.00000000000002 L11.12886 40.00000000000002 L12.06621 40.00000000000002 L12.50739 40.00000000000002 L12.28388 40.00000000000002 L11.48105 40.00000000000002 L10.40556 40.00000000000002 L9.93647 40.00000000000002 L9.78141 40.00000000000002 L9.56477 40.00000000000002 L9.46821 40.00000000000002 L9.02704 40.00000000000002 L9.02892 40.00000000000002 L9.10963 40.00000000000002 L9.18969 40.00000000000002 L9.25055 40.00000000000002 z"/>
<path fill="#c0c0c0" stroke="#c0c0c0" d="M24.95735 40.00000000000002 L25.89366 40.00000000000002 L26.96937 40.00000000000002 L27.59482 40.00000000000002 L27.77358 40.00000000000002 L27.99913 40.00000000000002 L27.55986 40.00000000000002 L26.62354 40.00000000000002 L25.54784 40.00000000000002 L24.74362 40.00000000000002 L24.51807 40.00000000000002 L24.55065 40.00000000000002 z"/>
<path fill="#c0c0c0" stroke="#c0c0c0" d="M32.33565 40.00000000000002 L32.58582 40.00000000000002 L32.97138 40.00000000000002 L33.28502 40.00000000000002 L34 40.00000000000002 L35.02862 40.00000000000002 L35.66435 40.00000000000002 L35.66435 40.00000000000002 L35.15779 40.00000000000002 L35.02862 40.00000000000002 L34.81246 40.00000000000002 L34.12367 40.00000000000002 L34 40.00000000000002 L33.95361 40.00000000000002 L33.93331 40.00000000000002 L33.50127 40.00000000000002 L32.97138 40.00000000000002 L32.79056 40.00000000000002 L32.56975 40.00000000000002 L32.55692 40.00000000000002 L32.33565 40.00000000000002 L32.33565 40.00000000000002 z"/>
<path fill="#c0c0c0" stroke="#c0c0c0" d="M27.50369 40.00000000000002 L27.8196 40.00000000000002 L27.94676 40.00000000000002 L27.72529 40.00000000000002 L26.92385 40.00000000000002 L26.3074 40.00000000000002 L26.17114 40.00000000000002 L25.91625 40.00000000000002 L25.84859 40.00000000000002 L24.9102 40.00000000000002 L24.46713 40.00000000000002 L24.59852 40.00000000000002 L24.64248 40.00000000000002 L24.66439 40.00000000000002 L24.6886 40.00000000000002 L25.49004 40.00000000000002 L26.1701 40.00000000000002 L26.5653 40.00000000000002 z"/>
<path fill="#c0c0c0" stroke="#c0c0c0" d="M19.661619596750118 -20 L19.661619596750118 40 L20.818660244963073 40 L20.818660244963073 -20 z"/>
<path fill="#c0c0c0" stroke="#c0c0c0" d="M21.966550677924126 40 L21.966550677924126 -20 L20.818660451228467 -20 L20.818660451228467 40 z"/>
<path fill="#c0c0c0" stroke="#c0c0c0" d="M17.338380144375083 -20 L17.338380144375083 40 L18.5 40 L18.5 -20 z"/>
<path fill="#c0c0c0" stroke="#c0c0c0" d="M18.5 -20 L18.5 40 L19.661619855624913 40 L19.661619855624913 -20 z"/>
<path fill="#c0c0c0" stroke="#c0c0c0" d="M23.100759903271424 40 L23.100759903271424 -20 L21.966550995136362 -20 L21.966550995136362 40 z"/>
<path fill="#c0c0c0" stroke="#c0c0c0" d="M24.21680910971583 40 L24.21680910971583 -20 L23.10075992932349 -20 L23.10075992932349 40 z"/>
<path fill="#c0c0c0" stroke="#c0c0c0" d="M25.31030200512002 40 L25.31030200512002 -20 L24.21680904097992 -20 L24.21680904097992 40 z"/>
<path fill="#c0c0c0" stroke="#c0c0c0" d="M26.376919426428984 40 L26.376919426428984 -20 L25.31030240347662 -20 L25.31030240347662 40 z"/>
<path fill="#c0c0c0" stroke="#c0c0c0" d="M29.37403092486318 -20 L29.37403092486318 40 L30.292343797891334 40 L30.292343797891334 -20 z"/>
<path fill="#c0c0c0" stroke="#c0c0c0" d="M28.412797181985603 -20 L28.412797181985603 40 L29.374031010542463 40 L29.374031010542463 -20 z"/>
<path fill="#c0c0c0" stroke="#c0c0c0" d="M27.41244216297938 40 L27.41244216297938 -20 L26.376919266704775 -20 L26.376919266704775 40 z"/>
<path fill="#c0c0c0" stroke="#c0c0c0" d="M27.412442456282932 -20 L27.412442456282932 40 L28.412797497835786 40 L28.412797497835786 -20 z"/>
<path fill="#c0c0c0" stroke="#c0c0c0" d="M31.98592078069874 -20 L31.98592078069874 40 L32.7544946565194 40 L32.7544946565194 -20 z"/>
<path fill="#c0c0c0" stroke="#c0c0c0" d="M31.164120688278015 40 L31.164120688278015 -20 L30.292344105271045 -20 L30.292344105271045 40 z"/>
<path fill="#c0c0c0" stroke="#c0c0c0" d="M31.164120790100103 -20 L31.164120790100103 40 L31.985920790100103 40 L31.985920790100103 -20 z"/>
<path fill="#c0c0c0" stroke="#c0c0c0" d="M34.71167415334718 40 L34.71167415334718 -20 L34.12006576907182 -20 L34.12006576907182 40 z"/>
<path fill="#c0c0c0" stroke="#c0c0c0" d="M33.46681148696687 -20 L33.46681148696687 40 L34.1200658534211 40 L34.1200658534211 -20 z"/>
<path fill="#c0c0c0" stroke="#c0c0c0" d="M33.46681119232674 40 L33.46681119232674 -20 L32.75449489621327 -20 L32.75449489621327 40 z"/>
<path fill="#c0c0c0" stroke="#c0c0c0" d="M35.239298560824494 40 L35.239298560824494 -20 L34.71167424509373 -20 L34.71167424509373 40 z"/>
<path fill="#c0c0c0" stroke="#c0c0c0" d="M35.70086555410102 40 L35.70086555410102 -20 L35.23929867455696 -20 L35.23929867455696 40 z"/>
<path fill="#c0c0c0" stroke="#c0c0c0" d="M36.094547336219776 40 L36.094547336219776 -20 L35.70086556943404 -20 L35.70086556943404 40 z"/>
<path fill="#c0c0c0" stroke="#c0c0c0" d="M36.418789756730284 40 L36.418789756730284 -20 L36.0945469356271 -20 L36.0945469356271 40 z"/>
<path fill="#c0c0c0" stroke="#c0c0c0" d="M36.672314451998986 40 L36.672314451998986 -20 L36.4187895672598 -20 L36.4187895672598 40 z"/>
<path fill="#c0c0c0" stroke="#c0c0c0" d="M36.85412284893474 40 L36.85412284893474 -20 L36.672314280229934 -20 L36.672314280229934 40 z"/>
<path fill="#c0c0c0" stroke="#c0c0c0" d="M36.963495734085264 40 L36.963495734085264 -20 L36.85412259142444 -20 L36.85412259142444 40 z"/>
<path fill="#c0c0c0" stroke="#c0c0c0" d="M37.000000000000014 40 L37.000000000000014 -20 L36.96349540581211 -20 L36.96349540581211 40 z"/>
<path fill="#c0c0c0" stroke="#c0c0c0" d="M36.96349540581211 40 L36.96349540581211 -20 L37.00000000000001 -20 L37.00000000000001 40 z"/>
<path fill="#c0c0c0" stroke="#c0c0c0" d="M36.85412259142444 40 L36.85412259142444 -20 L36.963495734085264 -20 L36.963495734085264 40 z"/>
<path fill="#c0c0c0" stroke="#c0c0c0" d="M36.672314280229934 40 L36.672314280229934 -20 L36.85412284893474 -20 L36.85412284893474 40 z"/>
<path fill="#c0c0c0" stroke="#c0c0c0" d="M36.4187895672598 40 L36.4187895672598 -20 L36.672314451998986 -20 L36.672314451998986 40 z"/>
<path fill="#c0c0c0" stroke="#c0c0c0" d="M36.0945469356271 40 L36.0945469356271 -20 L36.418789756730284 -20 L36.418789756730284 40 z"/>
<path fill="#c0c0c0" stroke="#c0c0c0" d="M35.70086556943404 40 L35.70086556943404 -20 L36.094547336219776 -20 L36.094547336219776 40 z"/>
<path fill="#c0c0c0" stroke="#c0c0c0" d="M35.23929867455696 40 L35.23929867455696 -20 L35.70086555410102 -20 L35.70086555410102 40 z"/>
<path fill="#c0c0c0" stroke="#c0c0c0" d="M35.239298560824494 -20 L35.239298560824494 40 L34.71167424509373 40 L34.71167424509373 -20 z"/>
<path fill="#c0c0c0" stroke="#c0c0c0" d="M34.12006576907182 40 L34.12006576907182 -20 L34.71167415334718 -20 L34.71167415334718 40 z"/>
<path fill="#c0c0c0" stroke="#c0c0c0" d="M33.46681148696687 40 L33.46681148696687 -20 L34.1200658534211 -20 L34.1200658534211 40 z"/>
<path fill="#c0c0c0" stroke="#c0c0c0" d="M31.164120790100103 40 L31.164120790100103 -20 L31.985920790100103 -20 L31.985920790100103 40 z"/>
<path fill="#c0c0c0" stroke="#c0c0c0" d="M32.7544946565194 -20 L32.7544946565194 40 L31.98592078069874 40 L31.98592078069874 -20 z"/>
<path fill="#c0c0c0" stroke="#c0c0c0" d="M32.754494896213274 40 L32.754494896213274 -20 L33.46681119232674 -20 L33.46681119232674 40 z"/>
<path fill="#c0c0c0" stroke="#c0c0c0" d="M27.41244216297938 -20 L27.41244216297938 40 L26.376919266704775 40 L26.376919266704775 -20 z"/>
<path fill="#c0c0c0" stroke="#c0c0c0" d="M30.292344105271045 40 L30.292344105271045 -20 L31.164120688278015 -20 L31.164120688278015 40 z"/>
<path fill="#c0c0c0" stroke="#c0c0c0" d="M29.374030924863185 40 L29.374030924863185 -20 L30.292343797891334 -20 L30.292343797891334 40 z"/>
<path fill="#c0c0c0" stroke="#c0c0c0" d="M28.412797181985603 40 L28.412797181985603 -20 L29.374031010542463 -20 L29.374031010542463 40 z"/>
<path fill="#c0c0c0" stroke="#c0c0c0" d="M28.412797497835786 -20 L28.412797497835786 40 L27.412442456282932 40 L27.412442456282932 -20 z"/>
<path fill="#c0c0c0" stroke="#c0c0c0" d="M17.33838040324988 -20 L17.33838040324988 40 L16.181339755036923 40 L16.181339755036923 -20 z"/>
<path fill="#c0c0c0" stroke="#c0c0c0" d="M25.31030240347662 40 L25.31030240347662 -20 L26.376919426428984 -20 L26.376919426428984 40 z"/>
<path fill="#c0c0c0" stroke="#c0c0c0" d="M24.21680904097992 40 L24.21680904097992 -20 L25.31030200512002 -20 L25.31030200512002 40 z"/>
<path fill="#c0c0c0" stroke="#c0c0c0" d="M23.100759929323488 40 L23.100759929323488 -20 L24.21680910971583 -20 L24.21680910971583 40 z"/>
<path fill="#c0c0c0" stroke="#c0c0c0" d="M21.966550995136362 40 L21.966550995136362 -20 L23.100759903271424 -20 L23.100759903271424 40 z"/>
<path fill="#c0c0c0" stroke="#c0c0c0" d="M20.818660451228467 40 L20.818660451228467 -20 L21.966550677924126 -20 L21.966550677924126 40 z"/>
<path fill="#c0c0c0" stroke="#c0c0c0" d="M18.5 -20 L18.5 40 L17.338380144375083 40 L17.338380144375083 -20 z"/>
<path fill="#c0c0c0" stroke="#c0c0c0" d="M19.661619596750118 40 L19.661619596750118 -20 L20.818660244963073 -20 L20.818660244963073 40 z"/>
<path fill="#c0c0c0" stroke="#c0c0c0" d="M19.661619855624913 -20 L19.661619855624913 40 L18.5 40 L18.5 -20 z"/>
<path fill="#c0c0c0" stroke="#c0c0c0" d="M15.033449322075876 40 L15.033449322075876 -20 L16.181339548771533 -20 L16.181339548771533 40 z"/>
<path fill="#c0c0c0" stroke="#c0c0c0" d="M13.899240096728576 40 L13.899240096728576 -20 L15.033449004863638 -20 L15.033449004863638 40 z"/>
<path fill="#c0c0c0" stroke="#c0c0c0" d="M12.783190890284168 40 L12.783190890284168 -20 L13.899240070676512 -20 L13.899240070676512 40 z"/>
<path fill="#c0c0c0" stroke="#c0c0c0" d="M11.689697994879984 40 L11.689697994879984 -20 L12.783190959020079 -20 L12.783190959020079 40 z"/>
<path fill="#c0c0c0" stroke="#c0c0c0" d="M10.623080573571018 40 L10.623080573571018 -20 L11.689697596523384 -20 L11.689697596523384 40 z"/>
<path fill="#c0c0c0" stroke="#c0c0c0" d="M6.707655894728964 -20 L6.707655894728964 40 L5.835879311721995 40 L5.835879311721995 -20 z"/>
<path fill="#c0c0c0" stroke="#c0c0c0" d="M9.587557837020622 40 L9.587557837020622 -20 L10.623080733295227 -20 L10.623080733295227 40 z"/>
<path fill="#c0c0c0" stroke="#c0c0c0" d="M8.587202502164217 40 L8.587202502164217 -20 L9.587557543717073 -20 L9.587557543717073 40 z"/>
<path fill="#c0c0c0" stroke="#c0c0c0" d="M7.625968989457545 40 L7.625968989457545 -20 L8.587202818014404 -20 L8.587202818014404 40 z"/>
<path fill="#c0c0c0" stroke="#c0c0c0" d="M7.625969075136826 -20 L7.625969075136826 40 L6.707656202108675 40 L6.707656202108675 -20 z"/>
<path fill="#c0c0c0" stroke="#c0c0c0" d="M5.01407920989991 40 L5.01407920989991 -20 L5.835879209899909 -20 L5.835879209899909 40 z"/>
<path fill="#c0c0c0" stroke="#c0c0c0" d="M4.24550534348061 40 L4.24550534348061 -20 L5.014079219301273 -20 L5.014079219301273 40 z"/>
<path fill="#c0c0c0" stroke="#c0c0c0" d="M3.5331888076732763 40 L3.5331888076732763 -20 L4.245505103786742 -20 L4.245505103786742 40 z"/>
<path fill="#c0c0c0" stroke="#c0c0c0" d="M2.8799341465789094 40 L2.8799341465789094 -20 L3.5331885130331466 -20 L3.5331885130331466 40 z"/>
<path fill="#c0c0c0" stroke="#c0c0c0" d="M2.2883258466528344 40 L2.2883258466528344 -20 L2.879934230928198 -20 L2.879934230928198 40 z"/>
<path fill="#c0c0c0" stroke="#c0c0c0" d="M0.9054530643729191 -20 L0.9054530643729191 40 L0.5812102432697377 40 L0.5812102432697377 -20 z"/>
<path fill="#c0c0c0" stroke="#c0c0c0" d="M1.7607013254430552 -20 L1.7607013254430552 40 L1.2991344458989964 40 L1.2991344458989964 -20 z"/>
<path fill="#c0c0c0" stroke="#c0c0c0" d="M1.2991344305659762 -20 L1.2991344305659762 40 L0.9054526637802442 40 L0.9054526637802442 -20 z"/>
<path fill="#c0c0c0" stroke="#c0c0c0" d="M1.7607014391755234 40 L1.7607014391755234 -20 L2.288325754906286 -20 L2.288325754906286 40 z"/>
<path fill="#c0c0c0" stroke="#c0c0c0" d="M32.33565079038631 32 L32.33565079038631 40 L32.55691985225818 40 L32.569750338787244 40 L32.79056089171117 40 L32.97137740412276 40 L32.97137740412276 32 z"/>
<path fill="#c0c0c0" stroke="#c0c0c0" d="M0.32768554800104005 40 L0.32768554800104005 -20 L0.5812104327402204 -20 L0.5812104327402204 40 z"/>
<path fill="#c0c0c0" stroke="#c0c0c0" d="M0.14587715106527901 40 L0.14587715106527901 -20 L0.32768571977008903 -20 L0.32768571977008903 40 z"/>
<path fill="#c0c0c0" stroke="#c0c0c0" d="M1.2320218088180492e-14 40 L1.2320218088180492e-14 -20 L0.03650459418791342 -20 L0.03650459418791342 40 z"/>
<path fill="#c0c0c0" stroke="#c0c0c0" d="M0.03650426591476352 40 L0.03650426591476352 -20 L0.14587740857557996 -20 L0.14587740857557996 40 z"/>
<path fill="#c0c0c0" stroke="#c0c0c0" d="M0.03650459418791345 40 L0.03650459418791345 -20 L1.6073450664403906e-14 -20 L1.6073450664403906e-14 40 z"/>
<path fill="#c0c0c0" stroke="#c0c0c0" d="M0.14587740857558004 40 L0.14587740857558004 -20 L0.036504265914763606 -20 L0.036504265914763606 40 z"/>
<path fill="#c0c0c0" stroke="#c0c0c0" d="M0.905452663780244 -20 L0.905452663780244 40 L1.2991344305659762 40 L1.2991344305659762 -20 z"/>
<path fill="#c0c0c0" stroke="#c0c0c0" d="M0.32768554800104005 -20 L0.32768554800104005 40 L0.5812104327402207 40 L0.5812104327402207 -20 z"/>
<path fill="#c0c0c0" stroke="#c0c0c0" d="M0.5812102432697379 -20 L0.5812102432697379 40 L0.905453064372919 40 L0.905453064372919 -20 z"/>
<path fill="#c0c0c0" stroke="#c0c0c0" d="M0.32768571977008903 40 L0.32768571977008903 -20 L0.14587715106527915 -20 L0.14587715106527915 40 z"/>
<path fill="#c0c0c0" stroke="#c0c0c0" d="M1.7607013254430552 40 L1.7607013254430552 -20 L1.2991344458989964 -20 L1.2991344458989964 40 z"/>
<path fill="#c0c0c0" stroke="#c0c0c0" d="M2.288325754906286 40 L2.288325754906286 -20 L1.7607014391755234 -20 L1.7607014391755234 40 z"/>
<path fill="#c0c0c0" stroke="#c0c0c0" d="M2.8799342309281974 40 L2.8799342309281974 -20 L2.2883258466528344 -20 L2.2883258466528344 40 z"/>
<path fill="#c0c0c0" stroke="#c0c0c0" d="M3.533188513033146 40 L3.533188513033146 -20 L2.879934146578909 -20 L2.879934146578909 40 z"/>
<path fill="#c0c0c0" stroke="#c0c0c0" d="M4.245505103786742 40 L4.245505103786742 -20 L3.5331888076732754 -20 L3.5331888076732754 40 z"/>
<path fill="#c0c0c0" stroke="#c0c0c0" d="M5.014079219301273 40 L5.014079219301273 -20 L4.24550534348061 -20 L4.24550534348061 40 z"/>
<path fill="#c0c0c0" stroke="#c0c0c0" d="M5.835879209899909 40 L5.835879209899909 -20 L5.014079209899909 -20 L5.014079209899909 40 z"/>
<path fill="#c0c0c0" stroke="#c0c0c0" d="M6.707655894728964 40 L6.707655894728964 -20 L5.835879311721995 -20 L5.835879311721995 40 z"/>
<path fill="#c0c0c0" stroke="#c0c0c0" d="M7.625969075136827 40 L7.625969075136827 -20 L6.707656202108675 -20 L6.707656202108675 40 z"/>
<path fill="#c0c0c0" stroke="#c0c0c0" d="M8.587202818014404 40 L8.587202818014404 -20 L7.6259689894575455 -20 L7.6259689894575455 40 z"/>
<path fill="#c0c0c0" stroke="#c0c0c0" d="M9.587557543717073 40 L9.587557543717073 -20 L8.587202502164219 -20 L8.587202502164219 40 z"/>
<path fill="#c0c0c0" stroke="#c0c0c0" d="M10.623080733295227 40 L10.623080733295227 -20 L9.587557837020622 -20 L9.587557837020622 40 z"/>
<path fill="#c0c0c0" stroke="#c0c0c0" d="M11.689697596523384 40 L11.689697596523384 -20 L10.623080573571018 -20 L10.623080573571018 40 z"/>
<path fill="#c0c0c0" stroke="#c0c0c0" d="M12.783190959020079 40 L12.783190959020079 -20 L11.689697994879984 -20 L11.689697994879984 40 z"/>
<path fill="#c0c0c0" stroke="#c0c0c0" d="M13.89924007067651 40 L13.89924007067651 -20 L12.783190890284168 -20 L12.783190890284168 40 z"/>
<path fill="#c0c0c0" stroke="#c0c0c0" d="M15.033449004863638 40 L15.033449004863638 -20 L13.899240096728574 -20 L13.899240096728574 40 z"/>
<path fill="#c0c0c0" stroke="#c0c0c0" d="M16.181339548771533 40 L16.181339548771533 -20 L15.033449322075876 -20 L15.033449322075876 40 z"/>
<path fill="#c0c0c0" stroke="#c0c0c0" d="M16.181339755036923 -20 L16.181339755036923 40 L17.33838040324988 40 L17.33838040324988 -20 z"/>
<path fill="#c0c0c0" stroke="#c0c0c0" d="M16.18134 -19.99999999999998 L17.33838 -19.99999999999998 L18.5 -19.99999999999998 L19.66162 -19.99999999999998 L20.81866 -19.99999999999998 L21.96655 -19.99999999999998 L23.10076 -19.99999999999998 L24.21681 -19.99999999999998 L25.3103 -19.99999999999998 L26.37692 -19.99999999999998 L27.41244 -19.99999999999998 L28.4128 -19.99999999999998 L29.37403 -19.99999999999998 L30.29234 -19.99999999999998 L31.16412 -19.99999999999998 L31.98592 -19.99999999999998 L32.75449 -19.99999999999998 L33.46681 -19.99999999999998 L34.12007 -19.99999999999998 L34.71167 -19.99999999999998 L35.2393 -19.99999999999998 L35.70086 -19.99999999999998 L36.09455 -19.99999999999998 L36.41879 -19.99999999999998 L36.67231 -19.99999999999998 L36.85412 -19.99999999999998 L36.9635 -19.99999999999998 L37 -19.99999999999998 L36.9635 -19.99999999999998 L36.85412 -19.99999999999998 L36.67231 -19.99999999999998 L36.41879 -19.99999999999998 L36.09455 -19.99999999999998 L35.70086 -19.99999999999998 L35.2393 -19.99999999999998 L34.71167 -19.99999999999998 L34.12007 -19.99999999999998 L33.46681 -19.99999999999998 L32.75449 -19.99999999999998 L31.98592 -19.99999999999998 L31.16412 -19.99999999999998 L30.29234 -19.99999999999998 L29.37403 -19.99999999999998 L28.4128 -19.99999999999998 L27.41244 -19.99999999999998 L26.37692 -19.99999999999998 L25.3103 -19.99999999999998 L24.21681 -19.99999999999998 L23.10076 -19.99999999999998 L21.96655 -19.99999999999998 L20.81866 -19.99999999999998 L19.66162 -19.99999999999998 L18.5 -19.99999999999998 L17.33838 -19.99999999999998 L16.18134 -19.99999999999998 L15.03345 -19.99999999999998 L13.89924 -19.99999999999998 L12.78319 -19.99999999999998 L11.6897 -19.99999999999998 L10.62308 -19.99999999999998 L9.58756 -19.99999999999998 L8.5872 -19.99999999999998 L7.62597 -19.99999999999998 L6.70766 -19.99999999999998 L5.83588 -19.99999999999998 L5.01408 -19.99999999999998 L4.24551 -19.99999999999998 L3.53319 -19.99999999999998 L2.87993 -19.99999999999998 L2.28833 -19.99999999999998 L1.7607 -19.99999999999998 L1.29914 -19.99999999999998 L0.90545 -19.99999999999998 L0.58121 -19.99999999999998 L0.32769 -19.99999999999998 L0.14588 -19.99999999999998 L0.0365 -19.99999999999998 L0 -19.99999999999998 L0.0365 -19.99999999999998 L0.14588 -19.99999999999998 L0.32769 -19.99999999999998 L0.58121 -19.99999999999998 L0.90545 -19.99999999999998 L1.29914 -19.99999999999998 L1.7607 -19.99999999999998 L2.28833 -19.99999999999998 L2.87993 -19.99999999999998 L3.53319 -19.99999999999998 L4.24551 -19.99999999999998 L5.01408 -19.99999999999998 L5.83588 -19.99999999999998 L6.70766 -19.99999999999998 L7.62597 -19.99999999999998 L8.5872 -19.99999999999998 L9.58756 -19.99999999999998 L10.62308 -19.99999999999998 L11.6897 -19.99999999999998 L12.78319 -19.99999999999998 L13.89924 -19.99999999999998 L15.03345 -19.99999999999998 z"/>
<path fill="#c0c0c0" stroke="#c0c0c0" d="M11.423299564677826 32 L11.423299564677826 40 L10.347380158981895 40 L10.347380158981895 32 z"/>
<path fill="#c0c0c0" stroke="#c0c0c0" d="M9.412110610060427 32 L9.412110610060427 40 L9.157360076737415 40 L8.974735513893435 40 L8.974735513893435 32 z"/>
<path fill="#c0c0c0" stroke="#c0c0c0" d="M10.347379422632981 32 L10.347379422632981 40 L9.412109441842482 40 L9.412109441842482 32 z"/>
<path fill="#c0c0c0" stroke="#c0c0c0" d="M11.423298344016375 40 L11.423298344016375 32 L12.228911626643546 32 L12.228911626643546 40 z"/>
<path fill="#c0c0c0" stroke="#c0c0c0" d="M12.45648927709247 32 L12.45648927709247 40 L12.228910075423892 40 L12.228910075423892 32 z"/>
<path fill="#c0c0c0" stroke="#c0c0c0" d="M32.97137968641687 32 L32.97137968641687 40 L33.50126918212678 40 L33.933309675782034 40 L33.953610889404246 40 L34 40 L34 32 z"/>
<path fill="#c0c0c0" stroke="#c0c0c0" d="M9.202316589333899 40 L9.202316589333899 32 L8.974737387665323 32 L8.974737387665323 40 z"/>
<path fill="#c0c0c0" stroke="#c0c0c0" d="M10.007920832024482 40 L10.007920832024482 32 L9.202318067393165 32 L9.202318067393165 40 z"/>
<path fill="#c0c0c0" stroke="#c0c0c0" d="M11.083850113265733 40 L11.083850113265733 32 L10.007919797096527 32 L10.007919797096527 40 z"/>
<path fill="#c0c0c0" stroke="#c0c0c0" d="M10.00792 32.00000000000002 L11.08385 32.00000000000002 L12.01911 32.00000000000002 L12.45649 32.00000000000002 L12.22891 32.00000000000002 L11.4233 32.00000000000002 L10.34738 32.00000000000002 L9.41211 32.00000000000002 L8.97474 32.00000000000002 L9.20232 32.00000000000002 z"/>
<path fill="#c0c0c0" stroke="#c0c0c0" d="M12.019113125372167 40 L12.45648985687809 40 L12.45648985687809 32 L12.019113125372167 32 z"/>
<path fill="#c0c0c0" stroke="#c0c0c0" d="M11.083848177689758 40 L11.972217410546419 40 L12.019110680714688 40 L12.019110680714688 32 L11.083848177689758 32 z"/>
<path fill="#c0c0c0" stroke="#c0c0c0" d="M4.663331535926072 32 L4.663331535926072 40 L4.025930485987954 40 L4.025930485987954 32 z"/>
<path fill="#c0c0c0" stroke="#c0c0c0" d="M4.665414300338458 32 L4.665414300338458 40 L4.6633347598679515 40 L4.6633347598679515 32 z"/>
<path fill="#c0c0c0" stroke="#c0c0c0" d="M1.3346429925904788 32 L1.3346429925904788 40 L1.3353211370584395 40 L1.336722533060985 40 L1.336722533060985 32 z"/>
<path fill="#c0c0c0" stroke="#c0c0c0" d="M2.9966590136207536 32 L2.9966590136207536 40 L1.968681240768325 40 L1.968681240768325 32 z"/>
<path fill="#c0c0c0" stroke="#c0c0c0" d="M4.02593067252875 32 L4.02593067252875 40 L2.9966617152284423 40 L2.9966617152284423 32 z"/>
<path fill="#c0c0c0" stroke="#c0c0c0" d="M1.9686841125962138 32 L1.9686841125962138 40 L1.3346436120474054 40 L1.3346436120474054 32 z"/>
<path fill="#c0c0c0" stroke="#c0c0c0" d="M3.003390637715671 40 L3.003390637715671 32 L1.9741307367716878 32 L1.9741307367716878 40 L2.2686388489770026 40 z"/>
<path fill="#c0c0c0" stroke="#c0c0c0" d="M1.3367211783111084 32 L1.3367211783111084 40 L1.9741304626518106 40 L1.9741304626518106 32 z"/>
<path fill="#c0c0c0" stroke="#c0c0c0" d="M4.66541 32.00000000000002 L4.66333 32.00000000000002 L4.02593 32.00000000000002 L2.99666 32.00000000000002 L1.96868 32.00000000000002 L1.33464 32.00000000000002 L1.33672 32.00000000000002 L1.97413 32.00000000000002 L3.00339 32.00000000000002 L4.03137 32.00000000000002 z"/>
<path fill="#c0c0c0" stroke="#c0c0c0" d="M3.003390010183752 40 L4.0313707374960615 40 L4.0313707374960615 32 L3.003390010183752 32 z"/>
<path fill="#c0c0c0" stroke="#c0c0c0" d="M4.0313727254754586 40 L4.665413226024267 40 L4.665413226024267 32 L4.0313727254754586 32 z"/>
<path fill="#c0c0c0" stroke="#c0c0c0" d="M9.250547977829287 32 L9.250547977829287 40 L9.189689890169767 40 L9.109632146670613 40 L9.02892387773792 40 L9.027035949944608 40 L9.027035949944608 32 z"/>
<path fill="#c0c0c0" stroke="#c0c0c0" d="M9.468209683997534 32 L9.468209683997534 40 L9.564767939521106 40 L9.781409158928959 40 L9.936469540353421 40 L10.405560355174552 40 L10.405560355174552 32 z"/>
<path fill="#c0c0c0" stroke="#c0c0c0" d="M9.027035192971606 32 L9.027035192971606 40 L9.468210471362182 40 L9.468210471362182 32 z"/>
<path fill="#c0c0c0" stroke="#c0c0c0" d="M12.066212623863516 40 L12.066212623863516 32 L12.507389566137137 32 L12.507389566137137 40 z"/>
<path fill="#c0c0c0" stroke="#c0c0c0" d="M12.283880558110054 40 L12.283880558110054 32 L11.481049000770565 32 L11.481049000770565 40 z"/>
<path fill="#c0c0c0" stroke="#c0c0c0" d="M11.48104975370322 40 L11.48104975370322 32 L10.405560031719991 32 L10.405560031719991 40 z"/>
<path fill="#c0c0c0" stroke="#c0c0c0" d="M12.50739028122659 40 L12.50739028122659 32 L12.28387825334191 32 L12.28387825334191 40 z"/>
<path fill="#c0c0c0" stroke="#c0c0c0" d="M12.066210093057274 32 L12.066210093057274 40 L11.128859421880255 40 L11.128859421880255 32 z"/>
<path fill="#c0c0c0" stroke="#c0c0c0" d="M10.053370185398201 32 L10.053370185398201 40 L9.250549111884675 40 L9.250549111884675 32 z"/>
<path fill="#c0c0c0" stroke="#c0c0c0" d="M11.128860403465232 32 L11.128860403465232 40 L10.053369629388111 40 L10.053369629388111 32 z"/>
<path fill="#c0c0c0" stroke="#c0c0c0" d="M12.50739 32.00000000000002 L12.06621 32.00000000000002 L11.12886 32.00000000000002 L10.05337 32.00000000000002 L9.25055 32.00000000000002 L9.02704 32.00000000000002 L9.46821 32.00000000000002 L10.40556 32.00000000000002 L11.48105 32.00000000000002 L12.28388 32.00000000000002 z"/>
<path fill="#c0c0c0" stroke="#c0c0c0" d="M25.893659403950494 32 L25.893659403950494 40 L24.95734907617312 40 L24.95734907617312 32 z"/>
<path fill="#c0c0c0" stroke="#c0c0c0" d="M26.969366379935728 40 L26.969366379935728 32 L27.773580786161297 32 L27.773580786161297 40 L27.594820231412367 40 z"/>
<path fill="#c0c0c0" stroke="#c0c0c0" d="M24.957347865212377 32 L24.957347865212377 40 L24.550652031567846 40 L24.518072883120617 40 L24.518072883120617 32 z"/>
<path fill="#c0c0c0" stroke="#c0c0c0" d="M25.893660077870923 40 L25.893660077870923 32 L26.9693695849256 32 L26.9693695849256 40 z"/>
<path fill="#c0c0c0" stroke="#c0c0c0" d="M26.623540484938534 32 L26.623540484938534 40 L27.559858307163438 40 L27.559858307163438 32 z"/>
<path fill="#c0c0c0" stroke="#c0c0c0" d="M25.547839519556042 32 L25.547839519556042 40 L26.623540167833813 40 L26.623540167833813 32 z"/>
<path fill="#c0c0c0" stroke="#c0c0c0" d="M27.559855617338275 32 L27.559855617338275 40 L27.99913266127582 40 L27.99913266127582 32 z"/>
<path fill="#c0c0c0" stroke="#c0c0c0" d="M27.773584115094252 40 L27.773584115094252 32 L27.99913096849739 32 L27.99913096849739 40 z"/>
<path fill="#c0c0c0" stroke="#c0c0c0" d="M25.54783658744859 40 L25.54783658744859 32 L24.743621624142296 32 L24.743621624142296 40 z"/>
<path fill="#c0c0c0" stroke="#c0c0c0" d="M24.518070383250443 32 L24.518070383250443 40 L24.743619276189815 40 L24.743619276189815 32 z"/>
<path fill="#c0c0c0" stroke="#c0c0c0" d="M25.89366 32.00000000000002 L24.95735 32.00000000000002 L24.51807 32.00000000000002 L24.74362 32.00000000000002 L25.54784 32.00000000000002 L26.62354 32.00000000000002 L27.55986 32.00000000000002 L27.99913 32.00000000000002 L27.77358 32.00000000000002 L26.96937 32.00000000000002 z"/>
<path fill="#c0c0c0" stroke="#c0c0c0" d="M34 32 L34 40 L34.12366917032676 40 L34.812461679862395 40 L35.028620313583126 40 L35.028620313583126 32 z"/>
<path fill="#c0c0c0" stroke="#c0c0c0" d="M32.33565079038631 40 L32.33565079038631 32 L32.97137740412276 32 L32.97137740412276 40 L32.58582107419786 40 z"/>
<path fill="#c0c0c0" stroke="#c0c0c0" d="M32.335651040077224 32 L32.335651040077224 40 L32.335651040077224 40 L32.335651040077224 40 L32.335651040077224 32 z"/>
<path fill="#c0c0c0" stroke="#c0c0c0" d="M35.028622595877245 32 L35.028622595877245 40 L35.15778916222179 40 L35.664349209613704 40 L35.664349209613704 32 z"/>
<path fill="#c0c0c0" stroke="#c0c0c0" d="M32.97137968641687 40 L32.97137968641687 32 L34 32 L34 40 L33.28502032586339 40 z"/>
<path fill="#c0c0c0" stroke="#c0c0c0" d="M34 40 L34 32 L35.028620313583126 32 L35.028620313583126 40 z"/>
<path fill="#c0c0c0" stroke="#c0c0c0" d="M35.664349209613704 32 L35.664349209613704 40 L35.028622595877245 40 L35.028622595877245 32 z"/>
<path fill="#c0c0c0" stroke="#c0c0c0" d="M35.664348959922805 32 L35.664348959922805 40 L35.664348959922805 40 L35.664348959922805 32 z"/>
<path fill="#c0c0c0" stroke="#c0c0c0" d="M32.97138 32.00000000000002 L32.33565 32.00000000000002 L32.33565 32.00000000000002 L32.97138 32.00000000000002 L34 32.00000000000002 L35.02862 32.00000000000002 L35.66435 32.00000000000002 L35.66435 32.00000000000002 L35.02862 32.00000000000002 L34 32.00000000000002 z"/>
<path fill="#c0c0c0" stroke="#c0c0c0" d="M24.467126771487997 40 L24.467126771487997 32 L24.688603981294996 32 L24.688603981294996 40 L24.664392244051392 40 L24.642475743310204 40 L24.5985206179171 40 z"/>
<path fill="#c0c0c0" stroke="#c0c0c0" d="M25.84858948544504 32 L25.84858948544504 40 L25.916250487040838 40 L26.171139828595194 40 L26.307399492482105 40 L26.923849546377195 40 L26.923849546377195 32 z"/>
<path fill="#c0c0c0" stroke="#c0c0c0" d="M24.910200082236134 40 L24.910200082236134 32 L24.467126570078502 32 L24.467126570078502 40 z"/>
<path fill="#c0c0c0" stroke="#c0c0c0" d="M24.91019997727508 32 L24.91019997727508 40 L25.84859099591472 40 L25.84859099591472 32 z"/>
<path fill="#c0c0c0" stroke="#c0c0c0" d="M27.946762634851826 32 L27.946762634851826 40 L27.81959910536685 40 L27.503689122694194 40 L27.503689122694194 32 z"/>
<path fill="#c0c0c0" stroke="#c0c0c0" d="M25.49004045665304 40 L25.49004045665304 32 L26.565300517585197 32 L26.565300517585197 40 L26.17010031261652 40 z"/>
<path fill="#c0c0c0" stroke="#c0c0c0" d="M24.68860234240393 40 L24.68860234240393 32 L25.49004053519536 32 L25.49004053519536 40 z"/>
<path fill="#c0c0c0" stroke="#c0c0c0" d="M26.923849121984993 32 L26.923849121984993 40 L27.725287314776423 40 L27.725287314776423 32 z"/>
<path fill="#c0c0c0" stroke="#c0c0c0" d="M27.725285182632472 32 L27.725285182632472 40 L27.94676239243947 40 L27.94676239243947 32 z"/>
<path fill="#c0c0c0" stroke="#c0c0c0" d="M27.503689746249318 32 L27.503689746249318 40 L26.565298727609683 40 L26.565298727609683 32 z"/>
<path fill="#c0c0c0" stroke="#c0c0c0" d="M24.9102 32.00000000000002 L25.84859 32.00000000000002 L26.92385 32.00000000000002 L27.72529 32.00000000000002 L27.94676 32.00000000000002 L27.50369 32.00000000000002 L26.5653 32.00000000000002 L25.49004 32.00000000000002 L24.6886 32.00000000000002 L24.46713 32.00000000000002 z"/>
</svg>